<svg width="350" height="350" viewBox="0 0 350 350" fill="none" xmlns="http://www.w3.org/2000/svg">
<rect width="350" height="350" fill="white"/>
<rect x="178" y="71" width="1" height="1" fill="#D9D9D9"/>
<rect x="42" y="12" width="271" height="338" rx="30" fill="white"/>
<path d="M51 52C51 35.4315 64.4315 22 81 22H274C290.569 22 304 35.4315 304 52V313C304 329.569 290.569 343 274 343H81C64.4315 343 51 329.569 51 313V52Z" fill="#ACBFCE"/>
<path d="M51 309H304V313C304 329.569 290.569 343 274 343H81C64.4315 343 51 329.569 51 313V309Z" fill="#FAFAFA"/>
<rect x="91" y="316" width="202" height="21" rx="10.5" fill="#D9D9D9"/>
<path d="M82 326C82 326.069 81.9725 326.136 81.9236 326.184C81.8747 326.233 81.8083 326.261 81.7391 326.261H76.2609V331.739C76.2609 331.808 76.2334 331.875 76.1845 331.924C76.1355 331.973 76.0692 332 76 332C75.9308 332 75.8645 331.973 75.8155 331.924C75.7666 331.875 75.7391 331.808 75.7391 331.739V326.261H70.2609C70.1917 326.261 70.1253 326.233 70.0764 326.184C70.0275 326.136 70 326.069 70 326C70 325.931 70.0275 325.864 70.0764 325.816C70.1253 325.767 70.1917 325.739 70.2609 325.739H75.7391V320.261C75.7391 320.192 75.7666 320.125 75.8155 320.076C75.8645 320.027 75.9308 320 76 320C76.0692 320 76.1355 320.027 76.1845 320.076C76.2334 320.125 76.2609 320.192 76.2609 320.261V325.739H81.7391C81.8083 325.739 81.8747 325.767 81.9236 325.816C81.9725 325.864 82 325.931 82 326Z" fill="#AEACAC"/>
<path d="M266 325.667H266.007M270 325.667H270.007M262 327C262 327.788 262.155 328.568 262.457 329.296C262.758 330.024 263.2 330.685 263.757 331.243C264.315 331.8 264.976 332.242 265.704 332.543C266.432 332.845 267.212 333 268 333C268.788 333 269.568 332.845 270.296 332.543C271.024 332.242 271.685 331.8 272.243 331.243C272.8 330.685 273.242 330.024 273.543 329.296C273.845 328.568 274 327.788 274 327C274 326.212 273.845 325.432 273.543 324.704C273.242 323.976 272.8 323.315 272.243 322.757C271.685 322.2 271.024 321.758 270.296 321.457C269.568 321.155 268.788 321 268 321C267.212 321 266.432 321.155 265.704 321.457C264.976 321.758 264.315 322.2 263.757 322.757C263.2 323.315 262.758 323.976 262.457 324.704C262.155 325.432 262 326.212 262 327Z" stroke="#979797" stroke-width="2" stroke-linecap="round" stroke-linejoin="round"/>
<path d="M266.333 329C266.551 329.222 266.81 329.398 267.096 329.518C267.382 329.638 267.689 329.7 268 329.7C268.31 329.7 268.618 329.638 268.904 329.518C269.19 329.398 269.449 329.222 269.667 329" stroke="#979797" stroke-width="2" stroke-linecap="round" stroke-linejoin="round"/>
<path d="M288.692 324.329H286.823L287.149 322.388C287.162 322.301 287.143 322.213 287.097 322.141C287.05 322.07 286.98 322.021 286.9 322.005C286.821 321.99 286.739 322.009 286.672 322.058C286.605 322.107 286.559 322.183 286.543 322.268L286.197 324.329H284.362L284.687 322.388C284.7 322.301 284.682 322.213 284.635 322.141C284.589 322.07 284.518 322.021 284.439 322.005C284.359 321.99 284.277 322.009 284.211 322.058C284.144 322.107 284.098 322.183 284.082 322.268L283.736 324.329H281.923C281.841 324.329 281.763 324.365 281.706 324.427C281.648 324.49 281.615 324.575 281.615 324.663C281.615 324.751 281.648 324.836 281.706 324.899C281.763 324.961 281.841 324.997 281.923 324.997H283.624L283.288 326.998H281.308C281.226 326.998 281.148 327.033 281.09 327.096C281.032 327.158 281 327.243 281 327.331C281 327.42 281.032 327.505 281.09 327.567C281.148 327.63 281.226 327.665 281.308 327.665H283.177L282.851 329.607C282.837 329.694 282.854 329.784 282.901 329.856C282.947 329.929 283.019 329.979 283.099 329.995C283.117 329.998 283.135 330 283.154 330C283.226 330 283.296 329.972 283.351 329.922C283.406 329.872 283.443 329.803 283.456 329.726L283.802 327.665H285.638L285.313 329.607C285.298 329.694 285.316 329.784 285.362 329.856C285.409 329.929 285.48 329.979 285.56 329.995C285.579 329.998 285.597 330 285.615 330C285.687 330 285.757 329.972 285.812 329.922C285.868 329.872 285.905 329.803 285.918 329.726L286.264 327.665H288.077C288.159 327.665 288.237 327.63 288.294 327.567C288.352 327.505 288.385 327.42 288.385 327.331C288.385 327.243 288.352 327.158 288.294 327.096C288.237 327.033 288.159 326.998 288.077 326.998H286.376L286.712 324.997H288.692C288.774 324.997 288.852 324.961 288.91 324.899C288.968 324.836 289 324.751 289 324.663C289 324.575 288.968 324.49 288.91 324.427C288.852 324.365 288.774 324.329 288.692 324.329ZM285.75 326.998H283.914L284.25 324.997H286.086L285.75 326.998Z" fill="#979797"/>
<path d="M136 121.16C136 112.876 142.716 106.16 151 106.16H284C284 106.16 289 105.16 292.5 108.16C296 111.16 298 106.16 298 106.16L296 111.044V111.044C297.078 124.58 286.384 136.16 272.804 136.16H151C142.716 136.16 136 129.444 136 121.16V121.16Z" fill="#F7E00F"/>
<path d="M146.135 119.19H147.135V119.43C147.135 121.35 146.575 123.28 145.095 124.13L144.345 123.13C145.665 122.36 146.135 120.85 146.135 119.43V119.19ZM146.395 119.19H147.395V119.43C147.395 120.82 147.875 122.23 149.185 122.93L148.465 123.91C146.965 123.13 146.395 121.32 146.395 119.43V119.19ZM144.655 118.19H148.865V119.26H144.655V118.19ZM146.135 116.94H147.395V119.05H146.135V116.94ZM151.275 116.63H152.535V125.89H151.275V116.63ZM150.165 120.18H151.705V121.26H150.165V120.18ZM149.285 116.77H150.525V125.47H149.285V116.77ZM154.224 120.78H155.014C156.924 120.78 158.034 120.76 159.304 120.56L159.434 121.59C158.134 121.81 156.964 121.83 155.014 121.83H154.224V120.78ZM154.224 117.27H158.674V118.32H155.544V121.21H154.224V117.27ZM155.134 119.03H158.404V120.05H155.134V119.03ZM160.074 116.64H161.414V122.23H160.074V116.64ZM158.284 122.37C160.234 122.37 161.454 123.02 161.454 124.13C161.454 125.25 160.234 125.89 158.284 125.89C156.324 125.89 155.114 125.25 155.114 124.13C155.114 123.02 156.324 122.37 158.284 122.37ZM158.284 123.39C157.074 123.39 156.444 123.63 156.444 124.13C156.444 124.64 157.074 124.88 158.284 124.88C159.484 124.88 160.124 124.64 160.124 124.13C160.124 123.63 159.484 123.39 158.284 123.39ZM169.574 116.63H170.844V125.89H169.574V116.63ZM168.364 120.2H169.904V121.26H168.364V120.2ZM167.504 116.79H168.744V125.45H167.504V116.79ZM163.274 117.65H164.604V123H163.274V117.65ZM163.274 122.5H163.914C164.804 122.5 165.844 122.45 166.994 122.23L167.124 123.37C165.914 123.59 164.854 123.64 163.914 123.64H163.274V122.5ZM176.213 117.87H178.953V118.94H176.213V117.87ZM176.213 119.88H178.953V120.95H176.213V119.88ZM173.553 122.53H179.863V125.89H178.533V123.58H173.553V122.53ZM178.533 116.63H179.863V122.11H178.533V116.63ZM174.673 117.11C176.053 117.11 177.113 118.07 177.113 119.4C177.113 120.74 176.053 121.7 174.673 121.7C173.283 121.7 172.223 120.74 172.223 119.4C172.223 118.07 173.283 117.11 174.673 117.11ZM174.673 118.24C173.993 118.24 173.493 118.67 173.493 119.4C173.493 120.14 173.993 120.57 174.673 120.57C175.343 120.57 175.853 120.14 175.853 119.4C175.853 118.67 175.343 118.24 174.673 118.24ZM185.502 116.76C187.612 116.76 188.852 117.32 188.852 118.34C188.852 119.36 187.612 119.92 185.502 119.92C183.382 119.92 182.152 119.36 182.152 118.34C182.152 117.32 183.382 116.76 185.502 116.76ZM185.502 117.73C184.162 117.73 183.532 117.93 183.532 118.34C183.532 118.77 184.162 118.95 185.502 118.95C186.842 118.95 187.472 118.77 187.472 118.34C187.472 117.93 186.842 117.73 185.502 117.73ZM181.312 120.35H189.682V121.4H181.312V120.35ZM182.272 121.92H188.672V124.3H183.592V125.12H182.282V123.38H187.362V122.91H182.272V121.92ZM182.282 124.83H188.912V125.83H182.282V124.83ZM199.662 116.63H200.932V125.89H199.662V116.63ZM198.452 120.2H199.992V121.26H198.452V120.2ZM197.592 116.79H198.832V125.45H197.592V116.79ZM193.362 117.65H194.692V123H193.362V117.65ZM193.362 122.5H194.002C194.892 122.5 195.932 122.45 197.082 122.23L197.212 123.37C196.002 123.59 194.942 123.64 194.002 123.64H193.362V122.5ZM202.211 123.74H210.591V124.82H202.211V123.74ZM205.721 121.76H207.051V124H205.721V121.76ZM203.091 117.22H204.411V118.64H208.361V117.22H209.681V122.04H203.091V117.22ZM204.411 119.68V120.98H208.361V119.68H204.411ZM218.06 116.63H219.33V125.89H218.06V116.63ZM216.85 120.2H218.39V121.26H216.85V120.2ZM215.99 116.79H217.23V125.45H215.99V116.79ZM211.76 117.65H213.09V123H211.76V117.65ZM211.76 122.5H212.4C213.29 122.5 214.33 122.45 215.48 122.23L215.61 123.37C214.4 123.59 213.34 123.64 212.4 123.64H211.76V122.5ZM221.639 119.13H228.059V120.18H221.639V119.13ZM220.599 121.14H228.989V122.2H220.599V121.14ZM221.639 116.96H222.959V119.65H221.639V116.96ZM221.549 124.63H228.109V125.69H221.549V124.63ZM221.549 122.94H222.879V124.91H221.549V122.94ZM236.559 122.29C238.479 122.29 239.689 122.96 239.689 124.09C239.689 125.23 238.479 125.9 236.559 125.9C234.629 125.9 233.419 125.23 233.419 124.09C233.419 122.96 234.629 122.29 236.559 122.29ZM236.559 123.33C235.379 123.33 234.739 123.57 234.739 124.09C234.739 124.62 235.379 124.87 236.559 124.87C237.739 124.87 238.369 124.62 238.369 124.09C238.369 123.57 237.739 123.33 236.559 123.33ZM238.249 116.63H239.579V122.08H238.249V116.63ZM239.209 118.78H240.809V119.88H239.209V118.78ZM232.559 117.22H233.879V118.36H235.689V117.22H237.009V121.57H232.559V117.22ZM233.879 119.39V120.53H235.689V119.39H233.879ZM241.878 117.1H243.198V118.27H244.958V117.1H246.258V121.43H241.878V117.1ZM243.198 119.28V120.37H244.958V119.28H243.198ZM245.958 118.74H248.208V119.81H245.958V118.74ZM247.908 116.63H249.238V121.7H247.908V116.63ZM243.088 122.09H244.408V122.92H247.918V122.09H249.238V125.78H243.088V122.09ZM244.408 123.94V124.72H247.918V123.94H244.408ZM257.047 116.63H258.387V121.61H257.047V116.63ZM252.227 122.01H253.537V122.87H257.067V122.01H258.387V125.79H252.227V122.01ZM253.537 123.89V124.73H257.067V123.89H253.537ZM253.347 117.01C254.787 117.01 255.857 117.92 255.857 119.2C255.857 120.48 254.787 121.39 253.347 121.39C251.907 121.39 250.827 120.48 250.827 119.2C250.827 117.92 251.907 117.01 253.347 117.01ZM253.347 118.11C252.637 118.11 252.127 118.52 252.127 119.2C252.127 119.89 252.637 120.29 253.347 120.29C254.047 120.29 254.557 119.89 254.557 119.2C254.557 118.52 254.047 118.11 253.347 118.11ZM266.296 116.63H267.626V125.89H266.296V116.63ZM260.376 117.51H261.696V123.26H260.376V117.51ZM260.376 122.48H261.196C262.546 122.48 264.046 122.38 265.576 122.08L265.726 123.18C264.136 123.51 262.606 123.61 261.196 123.61H260.376V122.48ZM275.006 116.62H276.346V125.91H275.006V116.62ZM276.046 120.05H277.686V121.14H276.046V120.05ZM269.446 122.58H270.226C271.786 122.58 273.016 122.53 274.376 122.29L274.506 123.39C273.106 123.64 271.836 123.68 270.226 123.68H269.446V122.58ZM269.446 117.48H273.766V118.55H270.766V123.11H269.446V117.48Z" fill="black"/>
<rect x="21.5" y="41.5" width="307" height="39" rx="8.5" fill="#ACBFCE" stroke="#F7E00F" stroke-width="3"/>
<path d="M157.332 58.285H158.832V58.645C158.832 61.525 157.992 64.42 155.772 65.695L154.647 64.195C156.627 63.04 157.332 60.775 157.332 58.645V58.285ZM157.722 58.285H159.222V58.645C159.222 60.73 159.942 62.845 161.907 63.895L160.827 65.365C158.577 64.195 157.722 61.48 157.722 58.645V58.285ZM155.112 56.785H161.427V58.39H155.112V56.785ZM157.332 54.91H159.222V58.075H157.332V54.91ZM165.042 54.445H166.932V68.335H165.042V54.445ZM163.377 59.77H165.687V61.39H163.377V59.77ZM162.057 54.655H163.917V67.705H162.057V54.655ZM169.466 60.67H170.651C173.516 60.67 175.181 60.64 177.086 60.34L177.281 61.885C175.331 62.215 173.576 62.245 170.651 62.245H169.466V60.67ZM169.466 55.405H176.141V56.98H171.446V61.315H169.466V55.405ZM170.831 58.045H175.736V59.575H170.831V58.045ZM178.241 54.46H180.251V62.845H178.241V54.46ZM175.556 63.055C178.481 63.055 180.311 64.03 180.311 65.695C180.311 67.375 178.481 68.335 175.556 68.335C172.616 68.335 170.801 67.375 170.801 65.695C170.801 64.03 172.616 63.055 175.556 63.055ZM175.556 64.585C173.741 64.585 172.796 64.945 172.796 65.695C172.796 66.46 173.741 66.82 175.556 66.82C177.356 66.82 178.316 66.46 178.316 65.695C178.316 64.945 177.356 64.585 175.556 64.585ZM188.904 62.935C191.784 62.935 193.599 63.94 193.599 65.635C193.599 67.345 191.784 68.35 188.904 68.35C186.009 68.35 184.194 67.345 184.194 65.635C184.194 63.94 186.009 62.935 188.904 62.935ZM188.904 64.495C187.134 64.495 186.174 64.855 186.174 65.635C186.174 66.43 187.134 66.805 188.904 66.805C190.674 66.805 191.619 66.43 191.619 65.635C191.619 64.855 190.674 64.495 188.904 64.495ZM191.439 54.445H193.434V62.62H191.439V54.445ZM192.879 57.67H195.279V59.32H192.879V57.67ZM182.904 55.33H184.884V57.04H187.599V55.33H189.579V61.855H182.904V55.33ZM184.884 58.585V60.295H187.599V58.585H184.884Z" fill="black"/>
<path d="M202.275 60.5854H203.252C203.566 60.5854 203.824 60.5326 204.027 60.4268C204.23 60.3167 204.38 60.1644 204.478 59.9697C204.579 59.7708 204.63 59.5402 204.63 59.2778C204.63 59.0409 204.583 58.8314 204.49 58.6494C204.401 58.4632 204.264 58.3193 204.078 58.2178C203.891 58.112 203.657 58.0591 203.373 58.0591C203.149 58.0591 202.941 58.1035 202.751 58.1924C202.561 58.2812 202.408 58.4061 202.294 58.5669C202.18 58.7277 202.123 58.9224 202.123 59.1509H200.288C200.288 58.6431 200.424 58.2008 200.694 57.8242C200.969 57.4476 201.338 57.1535 201.799 56.9419C202.26 56.7303 202.768 56.6245 203.322 56.6245C203.949 56.6245 204.497 56.7261 204.966 56.9292C205.436 57.1281 205.802 57.4222 206.064 57.8115C206.327 58.2008 206.458 58.6833 206.458 59.2588C206.458 59.5508 206.39 59.8343 206.255 60.1094C206.119 60.3802 205.925 60.6257 205.671 60.8457C205.421 61.0615 205.117 61.235 204.757 61.3662C204.397 61.4932 203.993 61.5566 203.544 61.5566H202.275V60.5854ZM202.275 61.9756V61.0298H203.544C204.048 61.0298 204.49 61.0869 204.871 61.2012C205.252 61.3154 205.571 61.4805 205.83 61.6963C206.088 61.9079 206.282 62.1597 206.414 62.4517C206.545 62.7394 206.61 63.0589 206.61 63.4102C206.61 63.8418 206.528 64.2269 206.363 64.5654C206.198 64.8997 205.965 65.1833 205.665 65.416C205.368 65.6488 205.021 65.8265 204.624 65.9492C204.226 66.0677 203.792 66.127 203.322 66.127C202.933 66.127 202.55 66.0741 202.173 65.9683C201.801 65.8582 201.462 65.6953 201.158 65.4795C200.857 65.2594 200.616 64.9844 200.434 64.6543C200.256 64.32 200.167 63.9243 200.167 63.4673H202.002C202.002 63.7043 202.061 63.9159 202.18 64.1021C202.298 64.2882 202.461 64.4342 202.668 64.54C202.88 64.6458 203.115 64.6987 203.373 64.6987C203.665 64.6987 203.915 64.6458 204.122 64.54C204.334 64.43 204.494 64.2777 204.604 64.083C204.719 63.8841 204.776 63.6535 204.776 63.3911C204.776 63.0526 204.715 62.7817 204.592 62.5786C204.469 62.3713 204.293 62.2189 204.065 62.1216C203.836 62.0243 203.566 61.9756 203.252 61.9756H202.275Z" fill="#898888"/>
<path fill-rule="evenodd" clip-rule="evenodd" d="M35.722 60.9087C38.022 58.6017 40.27 56.3497 42.466 54.1547C42.5809 54.0338 42.645 53.8734 42.645 53.7067C42.645 53.5399 42.5809 53.3795 42.466 53.2587C42.155 52.9127 41.663 52.9427 41.439 53.1787C39.163 55.4607 36.782 57.8457 34.296 60.3347C34.099 60.4967 34 60.6887 34 60.9087C34 61.1297 34.099 61.3267 34.296 61.5007L41.779 68.8067C41.9225 68.9387 42.1119 69.0095 42.3069 69.0041C42.5019 68.9987 42.687 68.9175 42.823 68.7777C43.181 68.4187 43.043 68.0647 42.881 67.8967C40.4909 65.5708 38.1052 63.2415 35.722 60.9087Z" fill="black"/>
<path d="M287.5 68.5L282.5 63.5M272.5 59.3333C272.5 60.0994 272.651 60.8579 272.944 61.5657C273.237 62.2734 273.667 62.9164 274.209 63.4581C274.75 63.9998 275.393 64.4295 276.101 64.7226C276.809 65.0158 277.567 65.1667 278.333 65.1667C279.099 65.1667 279.858 65.0158 280.566 64.7226C281.273 64.4295 281.916 63.9998 282.458 63.4581C283 62.9164 283.429 62.2734 283.723 61.5657C284.016 60.8579 284.167 60.0994 284.167 59.3333C284.167 58.5673 284.016 57.8087 283.723 57.101C283.429 56.3933 283 55.7502 282.458 55.2085C281.916 54.6669 281.273 54.2372 280.566 53.944C279.858 53.6509 279.099 53.5 278.333 53.5C277.567 53.5 276.809 53.6509 276.101 53.944C275.393 54.2372 274.75 54.6669 274.209 55.2085C273.667 55.7502 273.237 56.3933 272.944 57.101C272.651 57.8087 272.5 58.5673 272.5 59.3333Z" stroke="black" stroke-width="2" stroke-linecap="round" stroke-linejoin="round"/>
<path d="M301 67V65H319V67H301ZM301 62V60H319V62H301ZM301 57V55H319V57H301Z" fill="black"/>
<path d="M325 62C325 70.2843 318.284 77 310 77C301.716 77 295 70.2843 295 62C295 53.7157 301.716 47 310 47C318.284 47 325 53.7157 325 62ZM296.137 62C296.137 69.6562 302.344 75.8627 310 75.8627C317.656 75.8627 323.863 69.6562 323.863 62C323.863 54.3438 317.656 48.1373 310 48.1373C302.344 48.1373 296.137 54.3438 296.137 62Z" fill="white"/>
</svg>
