<svg width="350" height="350" viewBox="0 0 350 350" fill="none" xmlns="http://www.w3.org/2000/svg">
<rect width="350" height="350" fill="white"/>
<path d="M48 45C48 28.4315 61.4315 15 78 15H271C287.569 15 301 28.4315 301 45V305C301 321.569 287.569 335 271 335H78C61.4315 335 48 321.569 48 305V45Z" fill="#738899"/>
<path d="M48 301H301V305C301 321.569 287.569 335 271 335H78C61.4315 335 48 321.569 48 305V301Z" fill="#B5B5B5"/>
<path d="M94 15H272C288.569 15 302 28.4315 302 45V305C302 321.569 288.569 335 272 335H94V15Z" fill="#F3F3F3"/>
<path d="M100.102 24.05H100.742V24.52C100.742 26.31 99.9917 28.12 98.6717 28.91L98.1717 28.28C99.4017 27.56 100.102 25.99 100.102 24.52V24.05ZM100.252 24.05H100.892V24.52C100.892 25.95 101.622 27.43 102.832 28.09L102.362 28.71C101.032 27.97 100.252 26.26 100.252 24.52V24.05ZM98.4017 23.42H102.592V24.1H98.4017V23.42ZM100.102 22.06H100.902V23.93H100.102V22.06ZM105.172 21.74H105.962V30.78H105.172V21.74ZM103.742 25.38H105.482V26.08H103.742V25.38ZM103.202 21.93H103.982V30.33H103.202V21.93ZM107.981 26.03H108.711C110.661 26.03 111.731 25.99 113.001 25.78L113.091 26.44C111.781 26.67 110.681 26.7 108.711 26.7H107.981V26.03ZM107.981 22.4H112.281V23.07H108.801V26.37H107.981V22.4ZM108.531 24.19H112.031V24.85H108.531V24.19ZM114.031 21.75H114.871V27.34H114.031V21.75ZM111.881 27.47C113.761 27.47 114.911 28.07 114.911 29.11C114.911 30.16 113.761 30.76 111.881 30.76C109.991 30.76 108.841 30.16 108.841 29.11C108.841 28.07 109.991 27.47 111.881 27.47ZM111.881 28.13C110.501 28.13 109.671 28.49 109.671 29.11C109.671 29.75 110.501 30.11 111.881 30.11C113.251 30.11 114.081 29.75 114.081 29.11C114.081 28.49 113.251 28.13 111.881 28.13ZM120.79 27.41C122.63 27.41 123.76 28.03 123.76 29.09C123.76 30.15 122.63 30.77 120.79 30.77C118.95 30.77 117.82 30.15 117.82 29.09C117.82 28.03 118.95 27.41 120.79 27.41ZM120.79 28.08C119.45 28.08 118.63 28.45 118.63 29.09C118.63 29.74 119.45 30.11 120.79 30.11C122.13 30.11 122.95 29.74 122.95 29.09C122.95 28.45 122.13 28.08 120.79 28.08ZM122.84 21.74H123.67V27.17H122.84V21.74ZM123.44 24.01H125.01V24.71H123.44V24.01ZM117.03 22.31H117.85V23.66H120.4V22.31H121.21V26.48H117.03V22.31ZM117.85 24.32V25.81H120.4V24.32H117.85ZM132.85 24.8H135.37V25.48H132.85V24.8ZM130.67 22.52H131.35V24.13C131.35 26.16 130.28 28.1 128.85 28.87L128.32 28.21C129.65 27.55 130.67 25.81 130.67 24.13V22.52ZM130.83 22.52H131.5V24.13C131.5 25.78 132.52 27.42 133.83 28.04L133.34 28.71C131.88 27.97 130.83 26.11 130.83 24.13V22.52ZM134.96 21.73H135.78V30.79H134.96V21.73ZM143.719 21.75H144.549V26.73H143.719V21.75ZM144.299 23.92H145.889V24.61H144.299V23.92ZM138.869 27.14H139.679V28.23H143.729V27.14H144.549V30.66H138.869V27.14ZM139.679 28.89V29.98H143.729V28.89H139.679ZM137.929 25.84H138.639C140.279 25.84 141.449 25.79 142.859 25.54L142.929 26.23C141.499 26.47 140.309 26.52 138.639 26.52H137.929V25.84ZM137.909 22.18H141.979V24.61H138.739V26.26H137.929V23.97H141.159V22.86H137.909V22.18Z" fill="black"/>
<path d="M114.988 41.016H115.532V42.312C115.532 43.912 114.668 45.472 113.524 46.08L113.116 45.552C114.164 45.024 114.988 43.632 114.988 42.312V41.016ZM115.108 41.016H115.644V42.312C115.644 43.584 116.452 44.904 117.476 45.416L117.068 45.944C115.948 45.344 115.108 43.864 115.108 42.312V41.016ZM118.108 40.392H118.78V47.624H118.108V40.392ZM118.62 43.32H119.964V43.88H118.62V43.32ZM122.5 41.184H123.052V41.92C123.052 43.248 122.236 44.36 121.02 44.8L120.676 44.272C121.764 43.888 122.5 42.952 122.5 41.92V41.184ZM122.628 41.184H123.18V41.92C123.18 42.896 123.932 43.776 125.004 44.136L124.66 44.656C123.46 44.248 122.628 43.192 122.628 41.92V41.184ZM120.852 40.992H124.812V41.528H120.852V40.992ZM125.836 40.4H126.508V45.688H125.836V40.4ZM121.86 46.92H126.724V47.464H121.86V46.92ZM121.86 45.192H122.516V47.16H121.86V45.192ZM128.746 46.1406V46.7227C128.746 46.9596 128.686 47.2096 128.566 47.4727C128.447 47.7383 128.279 47.9596 128.062 48.1367L127.652 47.8516C127.736 47.737 127.806 47.6198 127.863 47.5C127.921 47.3828 127.964 47.2604 127.992 47.1328C128.023 47.0078 128.039 46.875 128.039 46.7344V46.1406H128.746ZM131.502 43.952H138.038V44.496H131.502V43.952ZM134.438 42.792H135.094V44.176H134.438V42.792ZM132.326 42.584H137.278V43.128H132.326V42.584ZM132.326 40.72H137.222V41.256H132.982V42.904H132.326V40.72ZM134.758 45.016C136.302 45.016 137.238 45.488 137.238 46.312C137.238 47.152 136.302 47.616 134.758 47.616C133.214 47.616 132.278 47.152 132.278 46.312C132.278 45.488 133.214 45.016 134.758 45.016ZM134.758 45.528C133.63 45.528 132.95 45.816 132.95 46.312C132.95 46.816 133.63 47.096 134.758 47.096C135.894 47.096 136.566 46.816 136.566 46.312C136.566 45.816 135.894 45.528 134.758 45.528ZM142.149 41.432H144.357V41.976H142.149V41.432ZM142.149 43.096H144.357V43.648H142.149V43.096ZM140.829 40.816C141.893 40.816 142.693 41.536 142.693 42.536C142.693 43.544 141.893 44.256 140.829 44.256C139.757 44.256 138.965 43.544 138.965 42.536C138.965 41.536 139.757 40.816 140.829 40.816ZM140.829 41.384C140.125 41.384 139.605 41.856 139.605 42.536C139.605 43.216 140.125 43.688 140.829 43.688C141.533 43.688 142.061 43.216 142.061 42.536C142.061 41.856 141.533 41.384 140.829 41.384ZM144.141 40.392H144.805V44.672H144.141V40.392ZM142.429 44.84C143.917 44.84 144.837 45.352 144.837 46.224C144.837 47.104 143.917 47.608 142.429 47.608C140.933 47.608 140.013 47.104 140.013 46.224C140.013 45.352 140.933 44.84 142.429 44.84ZM142.429 45.368C141.333 45.368 140.669 45.688 140.669 46.224C140.669 46.768 141.333 47.088 142.429 47.088C143.517 47.088 144.181 46.768 144.181 46.224C144.181 45.688 143.517 45.368 142.429 45.368ZM147.972 40.768H148.524V41.504C148.524 42.896 147.74 44.048 146.532 44.52L146.18 43.984C147.268 43.584 147.972 42.608 147.972 41.504V40.768ZM148.092 40.768H148.636V41.552C148.636 42.528 149.356 43.432 150.396 43.792L150.044 44.312C148.884 43.88 148.092 42.808 148.092 41.552V40.768ZM151.164 40.392H151.828V44.776H151.164V40.392ZM151.644 42.256H152.9V42.816H151.644V42.256ZM149.524 44.976C151.004 44.976 151.9 45.464 151.9 46.296C151.9 47.128 151.004 47.608 149.524 47.608C148.044 47.608 147.148 47.128 147.148 46.296C147.148 45.464 148.044 44.976 149.524 44.976ZM149.524 45.504C148.452 45.504 147.796 45.792 147.796 46.296C147.796 46.8 148.452 47.088 149.524 47.088C150.596 47.088 151.252 46.8 151.252 46.296C151.252 45.792 150.596 45.504 149.524 45.504Z" fill="black"/>
<path d="M107.314 39H98.6863C98.5043 39 98.3297 39.0858 98.201 39.2384C98.0723 39.391 98 39.5981 98 39.814V48.186C98 48.4019 98.0723 48.609 98.201 48.7616C98.3297 48.9142 98.5043 49 98.6863 49H107.314C107.496 49 107.67 48.9142 107.799 48.7616C107.928 48.609 108 48.4019 108 48.186V39.814C108 39.5981 107.928 39.391 107.799 39.2384C107.67 39.0858 107.496 39 107.314 39ZM98.6863 39.6977H107.314C107.34 39.6977 107.365 39.7099 107.383 39.7317C107.401 39.7535 107.412 39.7831 107.412 39.814V46.068L105.967 44.3547C105.903 44.2791 105.828 44.2191 105.745 44.1782C105.661 44.1373 105.572 44.1162 105.482 44.1162C105.392 44.1162 105.302 44.1373 105.219 44.1782C105.136 44.2191 105.06 44.2791 104.997 44.3547L103.947 45.6L101.721 42.9593C101.657 42.8837 101.581 42.8237 101.498 42.7828C101.415 42.7419 101.325 42.7209 101.235 42.7209C101.145 42.7209 101.056 42.7419 100.973 42.7828C100.889 42.8237 100.814 42.8837 100.75 42.9593L98.5882 45.5233V39.814C98.5882 39.7831 98.5986 39.7535 98.617 39.7317C98.6353 39.7099 98.6603 39.6977 98.6863 39.6977ZM98.5882 48.186V46.5099L101.166 43.4529C101.175 43.442 101.186 43.4334 101.198 43.4275C101.21 43.4216 101.222 43.4185 101.235 43.4185C101.248 43.4185 101.261 43.4216 101.273 43.4275C101.285 43.4334 101.296 43.442 101.305 43.4529L105.394 48.3023H98.6863C98.6603 48.3023 98.6353 48.2901 98.617 48.2683C98.5986 48.2465 98.5882 48.2169 98.5882 48.186ZM107.314 48.3023H106.225L104.363 46.093L105.412 44.8477C105.421 44.8369 105.432 44.8283 105.444 44.8224C105.456 44.8166 105.469 44.8136 105.482 44.8136C105.495 44.8136 105.507 44.8166 105.519 44.8224C105.531 44.8283 105.542 44.8369 105.551 44.8477L107.414 47.057V48.186C107.414 48.2015 107.411 48.2168 107.406 48.2311C107.401 48.2453 107.394 48.2583 107.384 48.2691C107.375 48.2799 107.364 48.2884 107.352 48.2942C107.34 48.2999 107.327 48.3026 107.314 48.3023ZM103.882 42.3721C103.882 42.2571 103.911 42.1447 103.965 42.0491C104.019 41.9535 104.095 41.879 104.185 41.835C104.275 41.7909 104.373 41.7794 104.468 41.8019C104.563 41.8243 104.651 41.8797 104.719 41.961C104.788 42.0423 104.834 42.1459 104.853 42.2587C104.872 42.3714 104.863 42.4883 104.825 42.5946C104.788 42.7008 104.726 42.7916 104.645 42.8555C104.564 42.9194 104.47 42.9535 104.373 42.9535C104.243 42.9535 104.118 42.8922 104.026 42.7832C103.934 42.6742 103.882 42.5263 103.882 42.3721Z" fill="black"/>
<path d="M280.042 40.5833L282.958 43.4999L280.042 46.4166" stroke="#868686" stroke-width="0.5"/>
<path d="M280 90L282.917 92.9167L280 95.8333" stroke="#868686" stroke-width="0.5"/>
<path d="M280 72L282.917 74.9167L280 77.8333" stroke="#868686" stroke-width="0.5"/>
<path d="M280 130L282.917 132.917L280 135.833" stroke="#868686" stroke-width="0.5"/>
<path d="M280 108L282.917 110.917L280 113.833" stroke="#868686" stroke-width="0.5"/>
<path d="M102.923 78.9166C102.731 78.9166 102.571 78.8524 102.443 78.7241C102.315 78.5958 102.25 78.4355 102.25 78.2433V73.7566C102.25 73.5646 102.314 73.4045 102.443 73.2762C102.572 73.1478 102.732 73.0835 102.923 73.0833H104.998L105.832 73.9166H109.077C109.269 73.9166 109.429 73.9809 109.557 74.1095C109.686 74.2381 109.75 74.3983 109.75 74.5899V78.2437C109.75 78.4353 109.686 78.5955 109.557 78.7241C109.429 78.8527 109.269 78.9169 109.077 78.9166H102.923ZM102.923 78.4999H109.077C109.152 78.4999 109.213 78.4759 109.261 78.4278C109.309 78.3798 109.333 78.3184 109.333 78.2437V74.5895C109.333 74.5148 109.309 74.4534 109.261 74.4053C109.213 74.3573 109.152 74.3333 109.077 74.3333H105.665L104.831 73.4999H102.923C102.848 73.4999 102.787 73.5239 102.739 73.572C102.691 73.6201 102.667 73.6816 102.667 73.7566V78.2437C102.667 78.3184 102.691 78.3798 102.739 78.4278C102.787 78.4759 102.848 78.4999 102.923 78.4999Z" fill="#383838"/>
<path d="M114.129 73.168H118.153V73.712H114.129V73.168ZM114.025 77.84L113.945 77.272C115.249 77.272 117.001 77.256 118.489 77.072L118.529 77.568C117.017 77.816 115.297 77.84 114.025 77.84ZM114.905 73.576H115.553V77.424H114.905V73.576ZM116.729 73.576H117.377V77.424H116.729V73.576ZM118.929 72.392H119.601V79.624H118.929V72.392ZM119.441 75.28H120.785V75.84H119.441V75.28ZM123.424 72.656C124.504 72.656 125.296 73.312 125.296 74.264C125.296 75.208 124.504 75.864 123.424 75.864C122.352 75.864 121.56 75.208 121.56 74.264C121.56 73.312 122.352 72.656 123.424 72.656ZM123.424 73.2C122.728 73.2 122.2 73.64 122.2 74.264C122.2 74.888 122.728 75.32 123.424 75.32C124.128 75.32 124.648 74.888 124.648 74.264C124.648 73.64 124.128 73.2 123.424 73.2ZM126.656 72.392H127.328V76.096H126.656V72.392ZM122.648 76.448H127.328V78.208H123.312V79.296H122.664V77.712H126.672V76.984H122.648V76.448ZM122.664 79H127.568V79.528H122.664V79Z" fill="#383838"/>
<g clip-path="url(#clip0_298_101)">
<path d="M107.243 89.2946C107.721 88.8146 108.42 88.8046 108.807 89.1933C109.195 89.5826 109.185 90.2866 108.706 90.7666L107.899 91.5776C107.853 91.6248 107.828 91.688 107.829 91.7536C107.829 91.8191 107.856 91.8818 107.902 91.9281C107.949 91.9744 108.011 92.0006 108.077 92.0011C108.142 92.0015 108.206 91.9762 108.253 91.9306L109.061 91.1196C109.698 90.48 109.778 89.459 109.162 88.8403C108.545 88.2213 107.526 88.302 106.888 88.9416L105.273 90.564C104.636 91.2036 104.556 92.2246 105.172 92.843C105.195 92.8669 105.222 92.886 105.253 92.8992C105.283 92.9123 105.316 92.9193 105.349 92.9197C105.383 92.92 105.416 92.9138 105.446 92.9013C105.477 92.8888 105.505 92.8703 105.529 92.8469C105.552 92.8235 105.571 92.7956 105.583 92.7649C105.596 92.7342 105.602 92.7013 105.602 92.6681C105.602 92.6349 105.595 92.6021 105.582 92.5716C105.569 92.541 105.55 92.5134 105.526 92.4903C105.138 92.101 105.149 91.397 105.627 90.917L107.243 89.2946Z" fill="#474747"/>
<path d="M106.828 91.1568C106.781 91.1098 106.718 91.0833 106.652 91.0833C106.585 91.0832 106.521 91.1094 106.474 91.1563C106.428 91.2031 106.401 91.2667 106.401 91.3331C106.401 91.3995 106.427 91.4631 106.474 91.5101C106.862 91.8995 106.852 92.6031 106.373 93.0835L104.757 94.7055C104.279 95.1855 103.58 95.1955 103.193 94.8068C102.805 94.4175 102.815 93.7135 103.294 93.2335L104.102 92.4225C104.125 92.3992 104.143 92.3716 104.156 92.3412C104.168 92.3109 104.175 92.2783 104.175 92.2455C104.175 92.2126 104.168 92.1801 104.155 92.1498C104.143 92.1195 104.124 92.092 104.101 92.0688C104.078 92.0456 104.05 92.0272 104.02 92.0147C103.989 92.0022 103.957 91.9958 103.924 91.9959C103.891 91.9959 103.859 92.0025 103.828 92.0151C103.798 92.0277 103.771 92.0462 103.747 92.0695L102.939 92.8805C102.302 93.5205 102.222 94.5411 102.838 95.1598C103.455 95.7791 104.474 95.6981 105.112 95.0585L106.727 93.4361C107.364 92.7968 107.444 91.7751 106.828 91.1568Z" fill="#474747"/>
</g>
<path d="M118.797 88.4H119.469V92.84H118.797V88.4ZM113.909 91.856H114.493C115.805 91.856 116.773 91.816 117.933 91.624L118.005 92.168C116.813 92.368 115.837 92.4 114.493 92.4H113.909V91.856ZM113.893 88.848H117.173V90.848H114.557V92.16H113.909V90.328H116.525V89.392H113.893V88.848ZM117.085 93C118.589 93 119.517 93.472 119.517 94.304C119.517 95.136 118.589 95.616 117.085 95.616C115.573 95.616 114.661 95.136 114.661 94.304C114.661 93.472 115.573 93 117.085 93ZM117.085 93.528C115.981 93.528 115.317 93.808 115.317 94.304C115.317 94.8 115.981 95.088 117.085 95.088C118.189 95.088 118.853 94.8 118.853 94.304C118.853 93.808 118.189 93.528 117.085 93.528ZM121.676 89.128H126.268V89.672H121.676V89.128ZM120.9 94.064H127.436V94.624H120.9V94.064ZM125.98 89.128H126.628V90.016C126.628 91.08 126.628 92.064 126.324 93.544L125.668 93.48C125.98 92.088 125.98 91.056 125.98 90.016V89.128ZM126.148 91.128V91.624L121.58 91.872L121.484 91.32L126.148 91.128Z" fill="#383838"/>
<line x1="97.9985" y1="82.75" x2="297.995" y2="81.5379" stroke="#BDBBBB" stroke-width="0.5"/>
<line x1="97.9985" y1="99.9622" x2="297.995" y2="98.7501" stroke="#BDBBBB" stroke-width="0.5"/>
<line x1="97.9985" y1="120.962" x2="297.995" y2="119.75" stroke="#BDBBBB" stroke-width="0.5"/>
<line x1="97.9985" y1="140.962" x2="297.995" y2="139.75" stroke="#BDBBBB" stroke-width="0.5"/>
<path d="M102.592 113.61H110.762V114.29H102.592V113.61ZM106.262 112.39H107.082V113.84H106.262V112.39ZM103.502 115.08H109.712V117.78H108.882V115.76H103.502V115.08ZM103.672 112.02H109.802V112.67H103.672V112.02ZM103.672 108.98H109.762V109.63H104.492V112.32H103.672V108.98ZM104.252 110.48H109.522V111.11H104.252V110.48ZM115.001 109.25H115.801C115.801 111.38 114.711 112.96 112.291 113.87L111.911 113.27C114.061 112.49 115.001 111.18 115.001 109.52V109.25ZM112.291 109.25H115.281V109.92H112.291V109.25ZM114.911 110.83V111.4L112.001 111.7L111.871 111.03L114.911 110.83ZM118.621 108.74H119.411V113.49H118.621V108.74ZM117.181 110.82H118.891V111.5H117.181V110.82ZM116.651 108.91H117.431V113.42H116.651V108.91ZM113.451 113.91H119.411V116.03H114.291V117.38H113.471V115.42H118.611V114.56H113.451V113.91ZM113.471 117.01H119.761V117.66H113.471V117.01ZM127.57 108.75H128.4V115.41H127.57V108.75ZM122.51 116.9H128.65V117.58H122.51V116.9ZM122.51 114.88H123.34V117.24H122.51V114.88ZM121.46 113.44H122.19C123.9 113.44 125.09 113.38 126.49 113.14L126.58 113.82C125.14 114.07 123.94 114.12 122.19 114.12H121.46V113.44ZM121.44 109.38H125.54V112H122.27V113.65H121.46V111.36H124.73V110.06H121.44V109.38ZM130.649 114.86H131.339C133.019 114.86 134.099 114.82 135.359 114.58L135.449 115.26C134.149 115.5 133.059 115.56 131.339 115.56H130.649V114.86ZM130.649 109.6H134.759V110.28H131.469V115.12H130.649V109.6ZM136.819 108.74H137.649V117.8H136.819V108.74ZM134.229 112.01H137.159V112.7H134.229V112.01Z" fill="black"/>
<path d="M103.592 132.61H111.762V133.29H103.592V132.61ZM107.262 131.39H108.082V132.84H107.262V131.39ZM104.502 134.08H110.712V136.78H109.882V134.76H104.502V134.08ZM104.672 131.02H110.802V131.67H104.672V131.02ZM104.672 127.98H110.762V128.63H105.492V131.32H104.672V127.98ZM105.252 129.48H110.522V130.11H105.252V129.48ZM119.681 127.74H120.481V136.78H119.681V127.74ZM115.761 131.43H118.041V132.1H115.761V131.43ZM117.801 127.97H118.581V136.32H117.801V127.97ZM115.871 128.88H116.671C116.671 131.25 115.721 133.38 113.281 134.83L112.791 134.24C114.921 132.96 115.871 131.16 115.871 129.03V128.88ZM113.191 128.88H116.181V129.56H113.191V128.88ZM124.38 128.52H125.06V130.14C125.06 132.22 123.94 134.15 122.46 134.9L121.95 134.22C123.29 133.58 124.38 131.85 124.38 130.14V128.52ZM124.52 128.52H125.2V130.14C125.2 131.79 126.28 133.45 127.62 134.07L127.12 134.73C125.65 134.01 124.52 132.15 124.52 130.14V128.52ZM128.56 127.73H129.39V136.79H128.56V127.73ZM131.469 128.58H136.299V129.26H131.469V128.58ZM131.319 133.06L131.219 132.36C132.799 132.35 134.949 132.33 136.719 132.11L136.779 132.73C134.979 133.01 132.859 133.06 131.319 133.06ZM132.359 129.09H133.159V132.5H132.359V129.09ZM134.599 129.09H135.399V132.5H134.599V129.09ZM137.379 127.75H138.209V134.41H137.379V127.75ZM137.949 130.49H139.549V131.19H137.949V130.49ZM132.579 135.9H138.619V136.58H132.579V135.9ZM132.579 133.77H133.409V136.08H132.579V133.77Z" fill="black"/>
<rect x="21.5" y="294.5" width="307" height="39" rx="8.5" fill="white" stroke="#F7E00F" stroke-width="3"/>
<path d="M95 296H303V302C303 318.569 289.569 332 273 332H95V296Z" fill="#D9D9D9"/>
<path d="M288.02 312.929C287.922 312.81 287.868 312.658 287.868 312.5C287.868 312.342 287.922 312.19 288.02 312.071L288.801 311.135C288.887 311.033 288.941 310.904 288.954 310.768C288.967 310.631 288.939 310.494 288.875 310.375L287.653 308.126C287.589 308.007 287.491 307.913 287.374 307.857C287.257 307.801 287.126 307.786 287 307.814L285.851 308.061C285.705 308.093 285.553 308.067 285.424 307.988C285.295 307.909 285.197 307.783 285.149 307.632L284.777 306.443C284.736 306.314 284.658 306.202 284.553 306.122C284.449 306.043 284.324 306.001 284.196 306.001H281.754C281.62 305.993 281.489 306.033 281.378 306.112C281.268 306.192 281.185 306.308 281.143 306.443L280.801 307.632C280.753 307.783 280.655 307.909 280.526 307.988C280.397 308.067 280.245 308.093 280.098 308.061L278.92 307.814C278.8 307.796 278.679 307.816 278.57 307.872C278.461 307.927 278.371 308.016 278.309 308.126L277.088 310.375C277.021 310.492 276.991 310.629 277.002 310.766C277.013 310.902 277.064 311.031 277.149 311.135L277.924 312.071C278.022 312.19 278.076 312.342 278.076 312.5C278.076 312.658 278.022 312.81 277.924 312.929L277.149 313.865C277.064 313.969 277.013 314.098 277.002 314.234C276.991 314.371 277.021 314.508 277.088 314.625L278.309 316.874C278.373 316.993 278.471 317.087 278.588 317.143C278.706 317.199 278.837 317.214 278.963 317.186L280.111 316.939C280.257 316.907 280.409 316.933 280.538 317.012C280.668 317.091 280.765 317.217 280.813 317.368L281.186 318.557C281.228 318.692 281.311 318.808 281.421 318.888C281.531 318.967 281.663 319.007 281.796 318.999H284.239C284.367 318.999 284.492 318.957 284.596 318.878C284.7 318.798 284.778 318.686 284.819 318.557L285.192 317.368C285.24 317.217 285.337 317.091 285.467 317.012C285.596 316.933 285.748 316.907 285.894 316.939L287.042 317.186C287.168 317.214 287.299 317.199 287.417 317.143C287.534 317.087 287.632 316.993 287.696 316.874L288.917 314.625C288.982 314.506 289.01 314.369 288.997 314.232C288.984 314.096 288.93 313.967 288.844 313.865L288.02 312.929ZM287.11 313.8L287.598 314.385L286.816 315.828L286.096 315.672C285.656 315.576 285.198 315.655 284.81 315.895C284.422 316.135 284.129 316.518 283.989 316.971L283.757 317.699H282.193L281.973 316.958C281.833 316.505 281.541 316.122 281.152 315.882C280.764 315.642 280.306 315.563 279.866 315.659L279.146 315.815L278.352 314.378L278.84 313.793C279.141 313.436 279.307 312.973 279.307 312.494C279.307 312.014 279.141 311.551 278.84 311.194L278.352 310.609L279.134 309.179L279.854 309.335C280.294 309.431 280.752 309.351 281.14 309.111C281.528 308.872 281.821 308.489 281.961 308.035L282.193 307.301H283.757L283.989 308.042C284.129 308.495 284.422 308.878 284.81 309.118C285.198 309.358 285.656 309.437 286.096 309.341L286.816 309.185L287.598 310.628L287.11 311.213C286.812 311.57 286.648 312.03 286.648 312.506C286.648 312.983 286.812 313.443 287.11 313.8ZM282.975 309.9C282.492 309.9 282.02 310.053 281.618 310.338C281.216 310.624 280.903 311.03 280.718 311.505C280.533 311.98 280.485 312.503 280.579 313.007C280.673 313.511 280.906 313.975 281.248 314.338C281.589 314.702 282.025 314.949 282.498 315.05C282.972 315.15 283.463 315.099 283.91 314.902C284.356 314.705 284.738 314.372 285.006 313.944C285.275 313.517 285.418 313.014 285.418 312.5C285.418 311.811 285.16 311.149 284.702 310.662C284.244 310.174 283.623 309.9 282.975 309.9ZM282.975 313.8C282.733 313.8 282.497 313.724 282.296 313.581C282.096 313.438 281.939 313.235 281.847 312.997C281.754 312.76 281.73 312.499 281.777 312.246C281.824 311.994 281.94 311.763 282.111 311.581C282.282 311.399 282.5 311.275 282.737 311.225C282.974 311.175 283.219 311.201 283.442 311.299C283.666 311.398 283.856 311.564 283.991 311.778C284.125 311.992 284.196 312.243 284.196 312.5C284.196 312.845 284.068 313.175 283.839 313.419C283.61 313.663 283.299 313.8 282.975 313.8Z" fill="#B1B1B1"/>
<path d="M241.391 318.875L242.406 314.484L239 311.531L243.5 311.141L245.25 307L247 311.141L251.5 311.531L248.094 314.484L249.109 318.875L245.25 316.547L241.391 318.875Z" fill="#737373"/>
<path d="M225.25 316.625V317.25H214V316.625L215.25 315.375V311.625C215.25 309.688 216.519 307.981 218.375 307.431V307.25C218.375 306.918 218.507 306.601 218.741 306.366C218.976 306.132 219.293 306 219.625 306C219.957 306 220.274 306.132 220.509 306.366C220.743 306.601 220.875 306.918 220.875 307.25V307.431C222.731 307.981 224 309.688 224 311.625V315.375L225.25 316.625ZM220.875 317.875C220.875 318.207 220.743 318.524 220.509 318.759C220.274 318.993 219.957 319.125 219.625 319.125C219.293 319.125 218.976 318.993 218.741 318.759C218.507 318.524 218.375 318.207 218.375 317.875" fill="#737373"/>
<path d="M115.625 309.375L114.744 310.256L116.356 311.875H110V313.125H116.356L114.744 314.737L115.625 315.625L118.75 312.5M107.5 308.125H112.5V306.875H107.5C106.812 306.875 106.25 307.437 106.25 308.125V316.875C106.25 317.563 106.812 318.125 107.5 318.125H112.5V316.875H107.5V308.125Z" fill="#B1B1B1"/>
<path d="M298 313C298 321.284 291.284 328 283 328C274.716 328 268 321.284 268 313C268 304.716 274.716 298 283 298C291.284 298 298 304.716 298 313ZM269.137 313C269.137 320.656 275.344 326.863 283 326.863C290.656 326.863 296.863 320.656 296.863 313C296.863 305.344 290.656 299.137 283 299.137C275.344 299.137 269.137 305.344 269.137 313Z" fill="black"/>
<defs>
<clipPath id="clip0_298_101">
<rect width="8" height="8" fill="white" transform="translate(102 88)"/>
</clipPath>
</defs>
</svg>
