<svg width="350" height="350" viewBox="0 0 350 350" fill="none" xmlns="http://www.w3.org/2000/svg">
<rect width="350" height="350" fill="white"/>
<path d="M78 15.5H271C287.292 15.5 300.5 28.7076 300.5 45V305C300.5 321.292 287.292 334.5 271 334.5H78C61.7076 334.5 48.5 321.292 48.5 305V45C48.5 28.7076 61.7076 15.5 78 15.5Z" fill="white" stroke="#BABABA"/>
<path d="M92 251C92 259.284 85.2843 266 77 266C68.7157 266 62 259.284 62 251C62 242.716 68.7157 236 77 236C85.2843 236 92 242.716 92 251ZM63.1373 251C63.1373 258.656 69.3438 264.863 77 264.863C84.6562 264.863 90.8627 258.656 90.8627 251C90.8627 243.344 84.6562 237.137 77 237.137C69.3438 237.137 63.1373 243.344 63.1373 251Z" fill="black"/>
<path d="M69.921 37.5L75.714 43.292L75 44L68 37L75 30L75.714 30.708L69.92 36.5H82V37.5H69.921Z" fill="black"/>
<path d="M89.1017 35.05H89.7417V35.52C89.7417 37.31 88.9917 39.12 87.6717 39.91L87.1717 39.28C88.4017 38.56 89.1017 36.99 89.1017 35.52V35.05ZM89.2517 35.05H89.8917V35.52C89.8917 36.95 90.6217 38.43 91.8317 39.09L91.3617 39.71C90.0317 38.97 89.2517 37.26 89.2517 35.52V35.05ZM87.4017 34.42H91.5917V35.1H87.4017V34.42ZM89.1017 33.06H89.9017V34.93H89.1017V33.06ZM94.1717 32.74H94.9617V41.78H94.1717V32.74ZM92.7417 36.38H94.4817V37.08H92.7417V36.38ZM92.2017 32.93H92.9817V41.33H92.2017V32.93ZM96.9809 37.03H97.7109C99.6609 37.03 100.731 36.99 102.001 36.78L102.091 37.44C100.781 37.67 99.6809 37.7 97.7109 37.7H96.9809V37.03ZM96.9809 33.4H101.281V34.07H97.8009V37.37H96.9809V33.4ZM97.5309 35.19H101.031V35.85H97.5309V35.19ZM103.031 32.75H103.871V38.34H103.031V32.75ZM100.881 38.47C102.761 38.47 103.911 39.07 103.911 40.11C103.911 41.16 102.761 41.76 100.881 41.76C98.9909 41.76 97.8409 41.16 97.8409 40.11C97.8409 39.07 98.9909 38.47 100.881 38.47ZM100.881 39.13C99.5009 39.13 98.6709 39.49 98.6709 40.11C98.6709 40.75 99.5009 41.11 100.881 41.11C102.251 41.11 103.081 40.75 103.081 40.11C103.081 39.49 102.251 39.13 100.881 39.13ZM109.79 38.41C111.63 38.41 112.76 39.03 112.76 40.09C112.76 41.15 111.63 41.77 109.79 41.77C107.95 41.77 106.82 41.15 106.82 40.09C106.82 39.03 107.95 38.41 109.79 38.41ZM109.79 39.08C108.45 39.08 107.63 39.45 107.63 40.09C107.63 40.74 108.45 41.11 109.79 41.11C111.13 41.11 111.95 40.74 111.95 40.09C111.95 39.45 111.13 39.08 109.79 39.08ZM111.84 32.74H112.67V38.17H111.84V32.74ZM112.44 35.01H114.01V35.71H112.44V35.01ZM106.03 33.31H106.85V34.66H109.4V33.31H110.21V37.48H106.03V33.31ZM106.85 35.32V36.81H109.4V35.32H106.85ZM121.98 34.37H124.29V35.06H121.98V34.37ZM123.94 32.74H124.77V37.4H123.94V32.74ZM118.95 37.87H124.77V40.03H119.79V41.4H118.98V39.41H123.95V38.53H118.95V37.87ZM118.98 41H125.11V41.66H118.98V41ZM119.59 33.02H120.27V33.87C120.27 35.54 119.27 36.89 117.76 37.43L117.33 36.77C118.69 36.31 119.59 35.18 119.59 33.87V33.02ZM119.73 33.02H120.4V33.87C120.4 35.05 121.31 36.14 122.62 36.57L122.19 37.22C120.73 36.7 119.73 35.4 119.73 33.87V33.02ZM131.359 35.08H133.399V35.77H131.359V35.08ZM133.139 32.74H133.969V38.13H133.139V32.74ZM130.999 38.4C132.859 38.4 134.009 39.03 134.009 40.09C134.009 41.16 132.859 41.77 130.999 41.77C129.129 41.77 127.979 41.16 127.979 40.09C127.979 39.03 129.129 38.4 130.999 38.4ZM130.999 39.05C129.639 39.05 128.809 39.43 128.809 40.09C128.809 40.74 129.639 41.12 130.999 41.12C132.359 41.12 133.189 40.74 133.189 40.09C133.189 39.43 132.359 39.05 130.999 39.05ZM128.839 33.65H129.519V34.38C129.519 36.05 128.499 37.48 126.999 38.04L126.569 37.38C127.909 36.89 128.839 35.68 128.839 34.38V33.65ZM128.999 33.65H129.669V34.38C129.669 35.55 130.549 36.67 131.859 37.13L131.439 37.79C129.969 37.26 128.999 35.9 128.999 34.38V33.65ZM126.819 33.4H131.649V34.08H126.819V33.4Z" fill="black"/>
<path d="M62.9814 82.24H63.4934V82.616C63.4934 84.048 62.8934 85.496 61.8374 86.128L61.4374 85.624C62.4214 85.048 62.9814 83.792 62.9814 82.616V82.24ZM63.1014 82.24H63.6134V82.616C63.6134 83.76 64.1974 84.944 65.1654 85.472L64.7894 85.968C63.7254 85.376 63.1014 84.008 63.1014 82.616V82.24ZM61.6214 81.736H64.9734V82.28H61.6214V81.736ZM62.9814 80.648H63.6214V82.144H62.9814V80.648ZM67.0374 80.392H67.6694V87.624H67.0374V80.392ZM65.8934 83.304H67.2854V83.864H65.8934V83.304ZM65.4614 80.544H66.0854V87.264H65.4614V80.544ZM69.2848 83.824H69.8688C71.4288 83.824 72.2848 83.792 73.3008 83.624L73.3728 84.152C72.3248 84.336 71.4448 84.36 69.8688 84.36H69.2848V83.824ZM69.2848 80.92H72.7248V81.456H69.9408V84.096H69.2848V80.92ZM69.7248 82.352H72.5248V82.88H69.7248V82.352ZM74.1248 80.4H74.7968V84.872H74.1248V80.4ZM72.4048 84.976C73.9088 84.976 74.8288 85.456 74.8288 86.288C74.8288 87.128 73.9088 87.608 72.4048 87.608C70.8928 87.608 69.9728 87.128 69.9728 86.288C69.9728 85.456 70.8928 84.976 72.4048 84.976ZM72.4048 85.504C71.3008 85.504 70.6368 85.792 70.6368 86.288C70.6368 86.8 71.3008 87.088 72.4048 87.088C73.5008 87.088 74.1648 86.8 74.1648 86.288C74.1648 85.792 73.5008 85.504 72.4048 85.504ZM79.5321 84.928C81.0041 84.928 81.9081 85.424 81.9081 86.272C81.9081 87.12 81.0041 87.616 79.5321 87.616C78.0601 87.616 77.1561 87.12 77.1561 86.272C77.1561 85.424 78.0601 84.928 79.5321 84.928ZM79.5321 85.464C78.4601 85.464 77.8041 85.76 77.8041 86.272C77.8041 86.792 78.4601 87.088 79.5321 87.088C80.6041 87.088 81.2601 86.792 81.2601 86.272C81.2601 85.76 80.6041 85.464 79.5321 85.464ZM81.1721 80.392H81.8361V84.736H81.1721V80.392ZM81.6521 82.208H82.9081V82.768H81.6521V82.208ZM76.5241 80.848H77.1801V81.928H79.2201V80.848H79.8681V84.184H76.5241V80.848ZM77.1801 82.456V83.648H79.2201V82.456H77.1801ZM90.8199 80.384H91.4839V87.632H90.8199V80.384ZM87.6679 80.944C88.7399 80.944 89.5079 81.928 89.5079 83.464C89.5079 85.008 88.7399 85.992 87.6679 85.992C86.6039 85.992 85.8359 85.008 85.8359 83.464C85.8359 81.928 86.6039 80.944 87.6679 80.944ZM87.6679 81.544C86.9639 81.544 86.4679 82.296 86.4679 83.464C86.4679 84.64 86.9639 85.408 87.6679 85.408C88.3799 85.408 88.8679 84.64 88.8679 83.464C88.8679 82.296 88.3799 81.544 87.6679 81.544ZM92.9233 84.12H99.4833V84.664H92.9233V84.12ZM93.7553 80.568H98.6353V82.28H94.4273V83.24H93.7713V81.792H97.9873V81.088H93.7553V80.568ZM93.7713 82.984H98.7953V83.504H93.7713V82.984ZM93.8033 85.32H98.6433V87.528H93.8033V85.32ZM97.9953 85.848H94.4513V86.992H97.9953V85.848Z" fill="black"/>
<path d="M63.2009 94.458C63.9989 94.458 64.5629 95.196 64.5629 96.348C64.5629 97.506 63.9989 98.244 63.2009 98.244C62.4029 98.244 61.8389 97.506 61.8389 96.348C61.8389 95.196 62.4029 94.458 63.2009 94.458ZM63.2009 94.908C62.6729 94.908 62.3129 95.472 62.3129 96.348C62.3129 97.23 62.6729 97.806 63.2009 97.806C63.7229 97.806 64.0889 97.23 64.0889 96.348C64.0889 95.472 63.7229 94.908 63.2009 94.908ZM65.4269 94.044H65.9309V99.468H65.4269V94.044ZM65.8109 96.21H66.8189V96.63H65.8109V96.21ZM71.2165 94.038H71.7145V99.474H71.2165V94.038ZM68.8525 94.458C69.6565 94.458 70.2325 95.196 70.2325 96.348C70.2325 97.506 69.6565 98.244 68.8525 98.244C68.0545 98.244 67.4785 97.506 67.4785 96.348C67.4785 95.196 68.0545 94.458 68.8525 94.458ZM68.8525 94.908C68.3245 94.908 67.9525 95.472 67.9525 96.348C67.9525 97.23 68.3245 97.806 68.8525 97.806C69.3865 97.806 69.7525 97.23 69.7525 96.348C69.7525 95.472 69.3865 94.908 68.8525 94.908ZM75.104 94.608H75.59C75.59 96.174 75.062 97.614 73.118 98.58L72.848 98.196C74.564 97.35 75.104 96.138 75.104 94.662V94.608ZM73.142 94.608H75.398V95.01H73.142V94.608ZM75.026 95.952V96.336L72.95 96.54L72.872 96.096L75.026 95.952ZM76.466 94.038H76.97V99.468H76.466V94.038ZM76.832 96.24H77.834V96.654H76.832V96.24ZM78.9375 96.642H82.6635V97.05H78.9375V96.642ZM78.3195 98.322H83.2335V98.736H78.3195V98.322ZM78.9375 94.542H82.6095V94.956H79.4355V96.822H78.9375V94.542Z" fill="black"/>
<path d="M63.861 116.43H64.245V116.712C64.245 117.786 63.795 118.872 63.003 119.346L62.703 118.968C63.441 118.536 63.861 117.594 63.861 116.712V116.43ZM63.951 116.43H64.335V116.712C64.335 117.57 64.773 118.458 65.499 118.854L65.217 119.226C64.419 118.782 63.951 117.756 63.951 116.712V116.43ZM62.841 116.052H65.355V116.46H62.841V116.052ZM63.861 115.236H64.341V116.358H63.861V115.236ZM66.903 115.044H67.377V120.468H66.903V115.044ZM66.045 117.228H67.089V117.648H66.045V117.228ZM65.721 115.158H66.189V120.198H65.721V115.158ZM68.5886 117.618H69.0266C70.1966 117.618 70.8386 117.594 71.6006 117.468L71.6546 117.864C70.8686 118.002 70.2086 118.02 69.0266 118.02H68.5886V117.618ZM68.5886 115.44H71.1686V115.842H69.0806V117.822H68.5886V115.44ZM68.9186 116.514H71.0186V116.91H68.9186V116.514ZM72.2186 115.05H72.7226V118.404H72.2186V115.05ZM70.9286 118.482C72.0566 118.482 72.7466 118.842 72.7466 119.466C72.7466 120.096 72.0566 120.456 70.9286 120.456C69.7946 120.456 69.1046 120.096 69.1046 119.466C69.1046 118.842 69.7946 118.482 70.9286 118.482ZM70.9286 118.878C70.1006 118.878 69.6026 119.094 69.6026 119.466C69.6026 119.85 70.1006 120.066 70.9286 120.066C71.7506 120.066 72.2486 119.85 72.2486 119.466C72.2486 119.094 71.7506 118.878 70.9286 118.878ZM76.2741 118.446C77.3781 118.446 78.0561 118.818 78.0561 119.454C78.0561 120.09 77.3781 120.462 76.2741 120.462C75.1701 120.462 74.4921 120.09 74.4921 119.454C74.4921 118.818 75.1701 118.446 76.2741 118.446ZM76.2741 118.848C75.4701 118.848 74.9781 119.07 74.9781 119.454C74.9781 119.844 75.4701 120.066 76.2741 120.066C77.0781 120.066 77.5701 119.844 77.5701 119.454C77.5701 119.07 77.0781 118.848 76.2741 118.848ZM77.5041 115.044H78.0021V118.302H77.5041V115.044ZM77.8641 116.406H78.8061V116.826H77.8641V116.406ZM74.0181 115.386H74.5101V116.196H76.0401V115.386H76.5261V117.888H74.0181V115.386ZM74.5101 116.592V117.486H76.0401V116.592H74.5101ZM83.5879 116.022H84.9739V116.436H83.5879V116.022ZM84.7639 115.044H85.2619V117.84H84.7639V115.044ZM81.7699 118.122H85.2619V119.418H82.2739V120.24H81.7879V119.046H84.7699V118.518H81.7699V118.122ZM81.7879 120H85.4659V120.396H81.7879V120ZM82.1539 115.212H82.5619V115.722C82.5619 116.724 81.9619 117.534 81.0559 117.858L80.7979 117.462C81.6139 117.186 82.1539 116.508 82.1539 115.722V115.212ZM82.2379 115.212H82.6399V115.722C82.6399 116.43 83.1859 117.084 83.9719 117.342L83.7139 117.732C82.8379 117.42 82.2379 116.64 82.2379 115.722V115.212ZM89.2154 116.448H90.4394V116.862H89.2154V116.448ZM90.2834 115.044H90.7814V118.278H90.2834V115.044ZM88.9994 118.44C90.1154 118.44 90.8054 118.818 90.8054 119.454C90.8054 120.096 90.1154 120.462 88.9994 120.462C87.8774 120.462 87.1874 120.096 87.1874 119.454C87.1874 118.818 87.8774 118.44 88.9994 118.44ZM88.9994 118.83C88.1834 118.83 87.6854 119.058 87.6854 119.454C87.6854 119.844 88.1834 120.072 88.9994 120.072C89.8154 120.072 90.3134 119.844 90.3134 119.454C90.3134 119.058 89.8154 118.83 88.9994 118.83ZM87.7034 115.59H88.1114V116.028C88.1114 117.03 87.4994 117.888 86.5994 118.224L86.3414 117.828C87.1454 117.534 87.7034 116.808 87.7034 116.028V115.59ZM87.7994 115.59H88.2014V116.028C88.2014 116.73 88.7294 117.402 89.5154 117.678L89.2634 118.074C88.3814 117.756 87.7994 116.94 87.7994 116.028V115.59ZM86.4914 115.44H89.3894V115.848H86.4914V115.44Z" fill="black"/>
<path d="M68.0784 128.4H68.7424V133.912H68.0784V128.4ZM66.8544 130.312H68.3584V130.856H66.8544V130.312ZM66.8544 131.84H68.3584V132.376H66.8544V131.84ZM62.8064 129.272H66.8544V129.808H62.8064V129.272ZM64.8544 130.208C65.8144 130.208 66.4864 130.76 66.4864 131.592C66.4864 132.416 65.8144 132.976 64.8544 132.976C63.8864 132.976 63.2144 132.416 63.2144 131.592C63.2144 130.76 63.8864 130.208 64.8544 130.208ZM64.8544 130.728C64.2544 130.728 63.8464 131.08 63.8464 131.592C63.8464 132.104 64.2544 132.448 64.8544 132.448C65.4544 132.448 65.8624 132.104 65.8624 131.592C65.8624 131.08 65.4544 130.728 64.8544 130.728ZM64.5264 128.384H65.1904V129.616H64.5264V128.384ZM64.0944 134.92H68.9184V135.464H64.0944V134.92ZM64.0944 133.44H64.7584V135.184H64.0944V133.44ZM75.6858 128.392H76.3178V135.624H75.6858V128.392ZM74.5418 131.304H75.9338V131.864H74.5418V131.304ZM74.1098 128.544H74.7338V135.264H74.1098V128.544ZM71.6458 129.512H72.1658V130.344C72.1658 132.08 71.5978 133.472 70.4858 134.136L70.0778 133.624C71.1178 133.048 71.6458 131.816 71.6458 130.344V129.512ZM71.7658 129.512H72.2858V130.344C72.2858 131.672 72.8218 132.848 73.8378 133.368L73.4458 133.88C72.3418 133.272 71.7658 131.936 71.7658 130.344V129.512ZM70.2458 129.24H73.6058V129.792H70.2458V129.24ZM80.9736 130.24H81.4856V130.616C81.4856 132.048 80.8856 133.496 79.8296 134.128L79.4296 133.624C80.4136 133.048 80.9736 131.792 80.9736 130.616V130.24ZM81.0936 130.24H81.6056V130.616C81.6056 131.76 82.1896 132.944 83.1576 133.472L82.7816 133.968C81.7176 133.376 81.0936 132.008 81.0936 130.616V130.24ZM79.6136 129.736H82.9656V130.28H79.6136V129.736ZM80.9736 128.648H81.6136V130.144H80.9736V128.648ZM85.0296 128.392H85.6616V135.624H85.0296V128.392ZM83.8856 131.304H85.2776V131.864H83.8856V131.304ZM83.4536 128.544H84.0776V135.264H83.4536V128.544ZM87.2769 131.824H87.8609C89.4209 131.824 90.2769 131.792 91.2929 131.624L91.3649 132.152C90.3169 132.336 89.4369 132.36 87.8609 132.36H87.2769V131.824ZM87.2769 128.92H90.7169V129.456H87.9329V132.096H87.2769V128.92ZM87.7169 130.352H90.5169V130.88H87.7169V130.352ZM92.1169 128.4H92.7889V132.872H92.1169V128.4ZM90.3969 132.976C91.9009 132.976 92.8209 133.456 92.8209 134.288C92.8209 135.128 91.9009 135.608 90.3969 135.608C88.8849 135.608 87.9649 135.128 87.9649 134.288C87.9649 133.456 88.8849 132.976 90.3969 132.976ZM90.3969 133.504C89.2929 133.504 88.6289 133.792 88.6289 134.288C88.6289 134.8 89.2929 135.088 90.3969 135.088C91.4929 135.088 92.1569 134.8 92.1569 134.288C92.1569 133.792 91.4929 133.504 90.3969 133.504ZM97.5243 132.928C98.9963 132.928 99.9003 133.424 99.9003 134.272C99.9003 135.12 98.9963 135.616 97.5243 135.616C96.0523 135.616 95.1483 135.12 95.1483 134.272C95.1483 133.424 96.0523 132.928 97.5243 132.928ZM97.5243 133.464C96.4523 133.464 95.7963 133.76 95.7963 134.272C95.7963 134.792 96.4523 135.088 97.5243 135.088C98.5963 135.088 99.2523 134.792 99.2523 134.272C99.2523 133.76 98.5963 133.464 97.5243 133.464ZM99.1643 128.392H99.8283V132.736H99.1643V128.392ZM99.6443 130.208H100.9V130.768H99.6443V130.208ZM94.5163 128.848H95.1723V129.928H97.2123V128.848H97.8603V132.184H94.5163V128.848ZM95.1723 130.456V131.648H97.2123V130.456H95.1723ZM103.82 129.072H104.452V130.84H105.964V129.072H106.58V133.816H103.82V129.072ZM104.452 131.376V133.272H105.964V131.376H104.452ZM109.068 128.392H109.708V135.624H109.068V128.392ZM107.908 131.256H109.3V131.8H107.908V131.256ZM107.468 128.544H108.1V135.264H107.468V128.544ZM114.379 129.72H116.315V130.264H114.379V129.72ZM114.315 131.224H116.267V131.768H114.315V131.224ZM116.203 128.392H116.867V132.728H116.203V128.392ZM113.939 128.936H114.651C114.651 130.8 113.363 132.104 111.283 132.728L111.011 132.192C112.859 131.656 113.939 130.592 113.939 129.224V128.936ZM111.387 128.936H114.395V129.48H111.387V128.936ZM114.515 132.808C115.979 132.808 116.907 133.328 116.907 134.2C116.907 135.072 115.979 135.592 114.515 135.592C113.051 135.592 112.123 135.072 112.123 134.2C112.123 133.328 113.051 132.808 114.515 132.808ZM114.515 133.328C113.459 133.328 112.779 133.656 112.779 134.2C112.779 134.744 113.459 135.064 114.515 135.064C115.579 135.064 116.259 134.744 116.259 134.2C116.259 133.656 115.579 133.328 114.515 133.328ZM120.155 132.704H120.819V133.88H120.155V132.704ZM123.195 128.392H123.859V135.624H123.195V128.392ZM123.643 131.464H124.979V132.024H123.643V131.464ZM118.291 134.248L118.195 133.696C119.491 133.696 121.259 133.68 122.755 133.464L122.811 133.96C121.251 134.24 119.555 134.248 118.291 134.248ZM118.315 129.264H122.643V129.8H118.315V129.264ZM120.483 130.224C121.491 130.224 122.187 130.752 122.187 131.56C122.187 132.376 121.491 132.896 120.483 132.896C119.475 132.896 118.787 132.376 118.787 131.56C118.787 130.752 119.475 130.224 120.483 130.224ZM120.483 130.736C119.835 130.736 119.411 131.064 119.411 131.56C119.411 132.056 119.835 132.384 120.483 132.384C121.131 132.384 121.563 132.056 121.563 131.56C121.563 131.064 121.131 130.736 120.483 130.736ZM120.155 128.4H120.819V129.624H120.155V128.4ZM129.106 129.664H131.13V130.208H129.106V129.664ZM129.106 131.208H131.146V131.76H129.106V131.208ZM125.97 129.016H129.274V132.408H125.97V129.016ZM128.618 129.552H126.618V131.872H128.618V129.552ZM130.922 128.4H131.586V133.68H130.922V128.4ZM126.938 134.92H131.762V135.464H126.938V134.92ZM126.938 133.2H127.602V135.168H126.938V133.2Z" fill="black"/>
<path d="M65.4501 220.24H65.9621V220.616C65.9621 222.048 65.3621 223.496 64.3061 224.128L63.9061 223.624C64.8901 223.048 65.4501 221.792 65.4501 220.616V220.24ZM65.5701 220.24H66.0821V220.616C66.0821 221.76 66.6661 222.944 67.6341 223.472L67.2581 223.968C66.1941 223.376 65.5701 222.008 65.5701 220.616V220.24ZM64.0901 219.736H67.4421V220.28H64.0901V219.736ZM65.4501 218.648H66.0901V220.144H65.4501V218.648ZM69.5061 218.392H70.1381V225.624H69.5061V218.392ZM68.3621 221.304H69.7541V221.864H68.3621V221.304ZM67.9301 218.544H68.5541V225.264H67.9301V218.544ZM71.7535 221.824H72.3375C73.8975 221.824 74.7535 221.792 75.7695 221.624L75.8415 222.152C74.7935 222.336 73.9135 222.36 72.3375 222.36H71.7535V221.824ZM71.7535 218.92H75.1935V219.456H72.4095V222.096H71.7535V218.92ZM72.1935 220.352H74.9935V220.88H72.1935V220.352ZM76.5935 218.4H77.2655V222.872H76.5935V218.4ZM74.8735 222.976C76.3775 222.976 77.2975 223.456 77.2975 224.288C77.2975 225.128 76.3775 225.608 74.8735 225.608C73.3615 225.608 72.4415 225.128 72.4415 224.288C72.4415 223.456 73.3615 222.976 74.8735 222.976ZM74.8735 223.504C73.7695 223.504 73.1055 223.792 73.1055 224.288C73.1055 224.8 73.7695 225.088 74.8735 225.088C75.9695 225.088 76.6335 224.8 76.6335 224.288C76.6335 223.792 75.9695 223.504 74.8735 223.504ZM82.0009 222.928C83.4729 222.928 84.3769 223.424 84.3769 224.272C84.3769 225.12 83.4729 225.616 82.0009 225.616C80.5289 225.616 79.6249 225.12 79.6249 224.272C79.6249 223.424 80.5289 222.928 82.0009 222.928ZM82.0009 223.464C80.9289 223.464 80.2729 223.76 80.2729 224.272C80.2729 224.792 80.9289 225.088 82.0009 225.088C83.0729 225.088 83.7289 224.792 83.7289 224.272C83.7289 223.76 83.0729 223.464 82.0009 223.464ZM83.6409 218.392H84.3049V222.736H83.6409V218.392ZM84.1209 220.208H85.3769V220.768H84.1209V220.208ZM78.9929 218.848H79.6489V219.928H81.6889V218.848H82.3369V222.184H78.9929V218.848ZM79.6489 220.456V221.648H81.6889V220.456H79.6489ZM93.5366 218.392H94.1766V225.624H93.5366V218.392ZM90.5366 221.152H92.3526V221.696H90.5366V221.152ZM92.0806 218.56H92.7126V225.256H92.0806V218.56ZM88.3046 223.328H88.7686C89.8966 223.328 90.5766 223.296 91.3766 223.128L91.4406 223.68C90.6166 223.856 89.9206 223.888 88.7686 223.888H88.3046V223.328ZM88.3046 219.272H91.0246V219.816H88.9606V223.544H88.3046V219.272ZM100.648 218.384H101.312V225.632H100.648V218.384ZM97.496 218.944C98.568 218.944 99.336 219.928 99.336 221.464C99.336 223.008 98.568 223.992 97.496 223.992C96.432 223.992 95.664 223.008 95.664 221.464C95.664 219.928 96.432 218.944 97.496 218.944ZM97.496 219.544C96.792 219.544 96.296 220.296 96.296 221.464C96.296 222.64 96.792 223.408 97.496 223.408C98.208 223.408 98.696 222.64 98.696 221.464C98.696 220.296 98.208 219.544 97.496 219.544ZM108.055 218.384H108.711V225.632H108.055V218.384ZM106.551 221.112H108.151V221.664H106.551V221.112ZM103.087 223.344H103.639C104.999 223.344 105.855 223.32 106.871 223.128L106.935 223.672C105.895 223.856 105.015 223.896 103.639 223.896H103.087V223.344ZM103.087 219.048H106.431V219.6H103.743V223.536H103.087V219.048ZM103.575 221.08H106.119V221.616H103.575V221.08ZM112.487 218.952H115.687V219.496H112.487V218.952ZM113.575 220.568H114.231V222.376H113.575V220.568ZM115.423 218.952H116.079V219.336C116.079 219.808 116.079 220.528 115.887 221.48L115.239 221.408C115.423 220.456 115.423 219.8 115.423 219.336V218.952ZM117.063 218.392H117.727V223.84H117.063V218.392ZM117.423 220.744H118.759V221.296H117.423V220.744ZM113.159 224.92H117.959V225.464H113.159V224.92ZM113.159 223.336H113.815V225.088H113.159V223.336ZM112.119 222.688L112.047 222.144C113.335 222.144 115.111 222.112 116.575 221.912L116.623 222.392C115.119 222.656 113.391 222.688 112.119 222.688ZM124.727 218.384H125.391V225.632H124.727V218.384ZM119.879 223.336H120.479C121.687 223.336 122.767 223.288 124.047 223.08L124.119 223.624C122.807 223.84 121.719 223.888 120.479 223.888H119.879V223.336ZM119.863 219.064H123.207V221.648H120.543V223.544H119.879V221.104H122.535V219.608H119.863V219.064Z" fill="black"/>
<path d="M63.9186 273.464H68.8546V275.528H63.9186V273.464ZM68.2066 273.976H64.5746V275.024H68.2066V273.976ZM63.4626 268.984H69.2786V269.504H63.4626V268.984ZM66.3906 269.792C67.8786 269.792 68.7266 270.144 68.7266 270.816C68.7266 271.488 67.8786 271.84 66.3906 271.84C64.8946 271.84 64.0546 271.488 64.0546 270.816C64.0546 270.144 64.8946 269.792 66.3906 269.792ZM66.3906 270.256C65.3426 270.256 64.7586 270.456 64.7586 270.816C64.7586 271.176 65.3426 271.376 66.3906 271.376C67.4306 271.376 68.0146 271.176 68.0146 270.816C68.0146 270.456 67.4306 270.256 66.3906 270.256ZM66.0626 268.288H66.7186V269.32H66.0626V268.288ZM63.1186 272.392H69.6546V272.912H63.1186V272.392ZM66.0626 271.68H66.7186V272.68H66.0626V271.68ZM74.3423 272.704H75.0063V273.88H74.3423V272.704ZM77.3823 268.392H78.0463V275.624H77.3823V268.392ZM77.8303 271.464H79.1663V272.024H77.8303V271.464ZM72.4783 274.248L72.3823 273.696C73.6783 273.696 75.4463 273.68 76.9423 273.464L76.9983 273.96C75.4383 274.24 73.7423 274.248 72.4783 274.248ZM72.5023 269.264H76.8303V269.8H72.5023V269.264ZM74.6703 270.224C75.6783 270.224 76.3743 270.752 76.3743 271.56C76.3743 272.376 75.6783 272.896 74.6703 272.896C73.6623 272.896 72.9743 272.376 72.9743 271.56C72.9743 270.752 73.6623 270.224 74.6703 270.224ZM74.6703 270.736C74.0223 270.736 73.5983 271.064 73.5983 271.56C73.5983 272.056 74.0223 272.384 74.6703 272.384C75.3183 272.384 75.7503 272.056 75.7503 271.56C75.7503 271.064 75.3183 270.736 74.6703 270.736ZM74.3423 268.4H75.0063V269.624H74.3423V268.4ZM83.2937 269.664H85.3177V270.208H83.2937V269.664ZM83.2937 271.208H85.3337V271.76H83.2937V271.208ZM80.1577 269.016H83.4617V272.408H80.1577V269.016ZM82.8057 269.552H80.8057V271.872H82.8057V269.552ZM85.1097 268.4H85.7737V273.68H85.1097V268.4ZM81.1257 274.92H85.9497V275.464H81.1257V274.92ZM81.1257 273.2H81.7897V275.168H81.1257V273.2ZM90.1171 271.2H91.4851V271.752H90.1171V271.2ZM92.6931 268.392H93.3331V275.624H92.6931V268.392ZM91.2611 268.544H91.8931V275.264H91.2611V268.544ZM88.8131 268.992C89.7491 268.992 90.3571 269.96 90.3571 271.512C90.3571 273.064 89.7491 274.032 88.8131 274.032C87.8771 274.032 87.2771 273.064 87.2771 271.512C87.2771 269.96 87.8771 268.992 88.8131 268.992ZM88.8131 269.608C88.2451 269.608 87.8851 270.344 87.8851 271.512C87.8851 272.68 88.2451 273.416 88.8131 273.416C89.3891 273.416 89.7491 272.68 89.7491 271.512C89.7491 270.344 89.3891 269.608 88.8131 269.608ZM101.421 268.392H102.093V275.624H101.421V268.392ZM101.933 271.232H103.277V271.8H101.933V271.232ZM96.8128 269H97.4688V270.912H99.5328V269H100.189V273.888H96.8128V269ZM97.4688 271.44V273.344H99.5328V271.44H97.4688ZM103.892 274.184H110.444V274.736H103.892V274.184ZM106.82 272.632H107.484V274.416H106.82V272.632ZM104.684 268.928H109.636V271.12H105.364V272.568H104.708V270.584H108.98V269.464H104.684V268.928ZM104.708 272.288H109.804V272.832H104.708V272.288ZM116.14 268.384H116.812V275.624H116.14V268.384ZM116.628 271.32H117.964V271.872H116.628V271.32ZM114.292 269.168H114.94C114.94 271.224 113.996 273.08 111.66 274.256L111.292 273.744C113.292 272.728 114.292 271.184 114.292 269.272V269.168ZM111.628 269.168H114.636V269.712H111.628V269.168ZM123.875 268.392H124.539V275.624H123.875V268.392ZM121.755 269.168H122.411C122.411 271.264 121.467 273.096 119.051 274.28L118.699 273.744C120.787 272.736 121.755 271.2 121.755 269.28V269.168ZM119.027 269.168H122.043V269.712H119.027V269.168ZM130.891 272.992H131.547V275.632H130.891V272.992ZM127.955 272.76H134.491V273.312H127.955V272.76ZM130.883 269.632H131.467V269.816C131.467 271.064 130.115 271.984 128.595 272.216L128.363 271.688C129.667 271.512 130.883 270.72 130.883 269.816V269.632ZM130.971 269.632H131.547V269.816C131.547 270.712 132.771 271.512 134.067 271.688L133.827 272.216C132.315 271.992 130.971 271.048 130.971 269.816V269.632ZM128.587 269.28H133.859V269.824H128.587V269.28ZM130.891 268.392H131.547V269.472H130.891V268.392ZM140.202 268.384H140.874V275.624H140.202V268.384ZM140.69 271.32H142.026V271.872H140.69V271.32ZM138.354 269.168H139.002C139.002 271.224 138.058 273.08 135.722 274.256L135.354 273.744C137.354 272.728 138.354 271.184 138.354 269.272V269.168ZM135.69 269.168H138.698V269.712H135.69V269.168Z" fill="black"/>
<path d="M67.2581 165.4H67.9221V170.912H67.2581V165.4ZM66.0341 167.312H67.5381V167.856H66.0341V167.312ZM66.0341 168.84H67.5381V169.376H66.0341V168.84ZM61.9861 166.272H66.0341V166.808H61.9861V166.272ZM64.0341 167.208C64.9941 167.208 65.6661 167.76 65.6661 168.592C65.6661 169.416 64.9941 169.976 64.0341 169.976C63.0661 169.976 62.3941 169.416 62.3941 168.592C62.3941 167.76 63.0661 167.208 64.0341 167.208ZM64.0341 167.728C63.4341 167.728 63.0261 168.08 63.0261 168.592C63.0261 169.104 63.4341 169.448 64.0341 169.448C64.6341 169.448 65.0421 169.104 65.0421 168.592C65.0421 168.08 64.6341 167.728 64.0341 167.728ZM63.7061 165.384H64.3701V166.616H63.7061V165.384ZM63.2741 171.92H68.0981V172.464H63.2741V171.92ZM63.2741 170.44H63.9381V172.184H63.2741V170.44ZM74.8655 165.392H75.4975V172.624H74.8655V165.392ZM73.7215 168.304H75.1135V168.864H73.7215V168.304ZM73.2895 165.544H73.9135V172.264H73.2895V165.544ZM70.8255 166.512H71.3455V167.344C71.3455 169.08 70.7775 170.472 69.6655 171.136L69.2575 170.624C70.2975 170.048 70.8255 168.816 70.8255 167.344V166.512ZM70.9455 166.512H71.4655V167.344C71.4655 168.672 72.0015 169.848 73.0175 170.368L72.6255 170.88C71.5215 170.272 70.9455 168.936 70.9455 167.344V166.512ZM69.4255 166.24H72.7855V166.792H69.4255V166.24ZM80.1533 167.24H80.6653V167.616C80.6653 169.048 80.0653 170.496 79.0093 171.128L78.6093 170.624C79.5933 170.048 80.1533 168.792 80.1533 167.616V167.24ZM80.2733 167.24H80.7853V167.616C80.7853 168.76 81.3693 169.944 82.3373 170.472L81.9613 170.968C80.8973 170.376 80.2733 169.008 80.2733 167.616V167.24ZM78.7933 166.736H82.1453V167.28H78.7933V166.736ZM80.1533 165.648H80.7933V167.144H80.1533V165.648ZM84.2093 165.392H84.8413V172.624H84.2093V165.392ZM83.0653 168.304H84.4573V168.864H83.0653V168.304ZM82.6333 165.544H83.2573V172.264H82.6333V165.544ZM86.4566 168.824H87.0406C88.6006 168.824 89.4566 168.792 90.4726 168.624L90.5446 169.152C89.4966 169.336 88.6166 169.36 87.0406 169.36H86.4566V168.824ZM86.4566 165.92H89.8966V166.456H87.1126V169.096H86.4566V165.92ZM86.8966 167.352H89.6966V167.88H86.8966V167.352ZM91.2966 165.4H91.9686V169.872H91.2966V165.4ZM89.5766 169.976C91.0806 169.976 92.0006 170.456 92.0006 171.288C92.0006 172.128 91.0806 172.608 89.5766 172.608C88.0646 172.608 87.1446 172.128 87.1446 171.288C87.1446 170.456 88.0646 169.976 89.5766 169.976ZM89.5766 170.504C88.4726 170.504 87.8086 170.792 87.8086 171.288C87.8086 171.8 88.4726 172.088 89.5766 172.088C90.6726 172.088 91.3366 171.8 91.3366 171.288C91.3366 170.792 90.6726 170.504 89.5766 170.504ZM96.704 169.928C98.176 169.928 99.08 170.424 99.08 171.272C99.08 172.12 98.176 172.616 96.704 172.616C95.232 172.616 94.328 172.12 94.328 171.272C94.328 170.424 95.232 169.928 96.704 169.928ZM96.704 170.464C95.632 170.464 94.976 170.76 94.976 171.272C94.976 171.792 95.632 172.088 96.704 172.088C97.776 172.088 98.432 171.792 98.432 171.272C98.432 170.76 97.776 170.464 96.704 170.464ZM98.344 165.392H99.008V169.736H98.344V165.392ZM98.824 167.208H100.08V167.768H98.824V167.208ZM93.696 165.848H94.352V166.928H96.392V165.848H97.04V169.184H93.696V165.848ZM94.352 167.456V168.648H96.392V167.456H94.352ZM107.688 165.392H108.352V169.072H107.688V165.392ZM108.064 166.944H109.416V167.496H108.064V166.944ZM103.76 169.416H108.352V171.192H104.432V172.272H103.776V170.688H107.704V169.944H103.76V169.416ZM103.776 171.992H108.616V172.528H103.776V171.992ZM104.736 165.648C105.824 165.648 106.608 166.312 106.608 167.256C106.608 168.208 105.824 168.872 104.736 168.872C103.664 168.872 102.872 168.208 102.872 167.256C102.872 166.312 103.664 165.648 104.736 165.648ZM104.736 166.192C104.04 166.192 103.52 166.632 103.52 167.256C103.52 167.888 104.04 168.328 104.736 168.328C105.448 168.328 105.968 167.888 105.968 167.256C105.968 166.632 105.448 166.192 104.736 166.192ZM115.359 165.392H116.031V169.68H115.359V165.392ZM110.471 168.792H111.055C112.367 168.792 113.335 168.752 114.495 168.568L114.567 169.104C113.375 169.304 112.399 169.344 111.055 169.344H110.471V168.792ZM110.455 165.824H113.735V167.8H111.119V169.12H110.471V167.288H113.087V166.368H110.455V165.824ZM111.359 170.08H116.031V172.528H111.359V170.08ZM115.375 170.608H112.007V171.992H115.375V170.608ZM120.727 165.552C122.287 165.552 123.271 166.064 123.271 166.92C123.271 167.776 122.287 168.28 120.727 168.28C119.159 168.28 118.183 167.776 118.183 166.92C118.183 166.064 119.159 165.552 120.727 165.552ZM120.727 166.08C119.575 166.08 118.863 166.384 118.863 166.92C118.863 167.448 119.575 167.76 120.727 167.76C121.871 167.76 122.591 167.448 122.591 166.92C122.591 166.384 121.871 166.08 120.727 166.08ZM118.255 170.144H123.191V172.528H118.255V170.144ZM122.543 170.68H118.911V171.992H122.543V170.68ZM117.455 168.904H123.991V169.44H117.455V168.904Z" fill="black"/>
<path d="M68.4066 186.4H69.0706V191.912H68.4066V186.4ZM67.1826 188.312H68.6866V188.856H67.1826V188.312ZM67.1826 189.84H68.6866V190.376H67.1826V189.84ZM63.1346 187.272H67.1826V187.808H63.1346V187.272ZM65.1826 188.208C66.1426 188.208 66.8146 188.76 66.8146 189.592C66.8146 190.416 66.1426 190.976 65.1826 190.976C64.2146 190.976 63.5426 190.416 63.5426 189.592C63.5426 188.76 64.2146 188.208 65.1826 188.208ZM65.1826 188.728C64.5826 188.728 64.1746 189.08 64.1746 189.592C64.1746 190.104 64.5826 190.448 65.1826 190.448C65.7826 190.448 66.1906 190.104 66.1906 189.592C66.1906 189.08 65.7826 188.728 65.1826 188.728ZM64.8546 186.384H65.5186V187.616H64.8546V186.384ZM64.4226 192.92H69.2466V193.464H64.4226V192.92ZM64.4226 191.44H65.0866V193.184H64.4226V191.44ZM76.0139 186.392H76.6459V193.624H76.0139V186.392ZM74.8699 189.304H76.2619V189.864H74.8699V189.304ZM74.4379 186.544H75.0619V193.264H74.4379V186.544ZM71.9739 187.512H72.4939V188.344C72.4939 190.08 71.9259 191.472 70.8139 192.136L70.4059 191.624C71.4459 191.048 71.9739 189.816 71.9739 188.344V187.512ZM72.0939 187.512H72.6139V188.344C72.6139 189.672 73.1499 190.848 74.1659 191.368L73.7739 191.88C72.6699 191.272 72.0939 189.936 72.0939 188.344V187.512ZM70.5739 187.24H73.9339V187.792H70.5739V187.24ZM81.3017 188.24H81.8137V188.616C81.8137 190.048 81.2137 191.496 80.1577 192.128L79.7577 191.624C80.7417 191.048 81.3017 189.792 81.3017 188.616V188.24ZM81.4217 188.24H81.9337V188.616C81.9337 189.76 82.5177 190.944 83.4857 191.472L83.1097 191.968C82.0457 191.376 81.4217 190.008 81.4217 188.616V188.24ZM79.9417 187.736H83.2937V188.28H79.9417V187.736ZM81.3017 186.648H81.9417V188.144H81.3017V186.648ZM85.3577 186.392H85.9897V193.624H85.3577V186.392ZM84.2137 189.304H85.6057V189.864H84.2137V189.304ZM83.7817 186.544H84.4057V193.264H83.7817V186.544ZM87.6051 189.824H88.1891C89.7491 189.824 90.6051 189.792 91.6211 189.624L91.6931 190.152C90.6451 190.336 89.7651 190.36 88.1891 190.36H87.6051V189.824ZM87.6051 186.92H91.0451V187.456H88.2611V190.096H87.6051V186.92ZM88.0451 188.352H90.8451V188.88H88.0451V188.352ZM92.4451 186.4H93.1171V190.872H92.4451V186.4ZM90.7251 190.976C92.2291 190.976 93.1491 191.456 93.1491 192.288C93.1491 193.128 92.2291 193.608 90.7251 193.608C89.2131 193.608 88.2931 193.128 88.2931 192.288C88.2931 191.456 89.2131 190.976 90.7251 190.976ZM90.7251 191.504C89.6211 191.504 88.9571 191.792 88.9571 192.288C88.9571 192.8 89.6211 193.088 90.7251 193.088C91.8211 193.088 92.4851 192.8 92.4851 192.288C92.4851 191.792 91.8211 191.504 90.7251 191.504ZM97.8524 190.928C99.3244 190.928 100.228 191.424 100.228 192.272C100.228 193.12 99.3244 193.616 97.8524 193.616C96.3804 193.616 95.4764 193.12 95.4764 192.272C95.4764 191.424 96.3804 190.928 97.8524 190.928ZM97.8524 191.464C96.7804 191.464 96.1244 191.76 96.1244 192.272C96.1244 192.792 96.7804 193.088 97.8524 193.088C98.9244 193.088 99.5804 192.792 99.5804 192.272C99.5804 191.76 98.9244 191.464 97.8524 191.464ZM99.4924 186.392H100.156V190.736H99.4924V186.392ZM99.9724 188.208H101.228V188.768H99.9724V188.208ZM94.8444 186.848H95.5004V187.928H97.5404V186.848H98.1884V190.184H94.8444V186.848ZM95.5004 188.456V189.648H97.5404V188.456H95.5004ZM109.148 186.392H109.82V190.272H109.148V186.392ZM105.156 190.632H105.812V191.512H109.164V190.632H109.82V193.528H105.156V190.632ZM105.812 192.04V192.992H109.164V192.04H105.812ZM105.94 186.736C107.036 186.736 107.82 187.416 107.82 188.4C107.82 189.392 107.036 190.072 105.94 190.072C104.844 190.072 104.052 189.392 104.052 188.4C104.052 187.416 104.844 186.736 105.94 186.736ZM105.94 187.288C105.22 187.288 104.7 187.744 104.7 188.4C104.7 189.056 105.22 189.512 105.94 189.512C106.66 189.512 107.18 189.056 107.18 188.4C107.18 187.744 106.66 187.288 105.94 187.288ZM111.548 189.976H112.068C113.492 189.976 114.196 189.952 115.06 189.8L115.132 190.336C114.236 190.496 113.516 190.52 112.068 190.52H111.548V189.976ZM111.532 186.824H114.652V188.88H112.204V190.304H111.548V188.36H113.996V187.368H111.532V186.824ZM116.532 186.4H117.196V190.84H116.532V186.4ZM115.132 187.464H116.684V188.008H115.132V187.464ZM115.132 188.96H116.684V189.504H115.132V188.96ZM112.356 191.232H117.196V193.64H116.532V191.776H112.356V191.232ZM120.411 187.64H120.955V187.952C120.955 189.208 120.147 190.24 118.939 190.64L118.619 190.12C119.691 189.784 120.411 188.92 120.411 187.952V187.64ZM120.531 187.64H121.075V187.952C121.075 188.824 121.779 189.624 122.843 189.936L122.531 190.456C121.323 190.088 120.531 189.112 120.531 187.952V187.64ZM118.811 187.264H122.667V187.8H118.811V187.264ZM120.411 186.36H121.075V187.456H120.411V186.36ZM123.555 186.392H124.219V190.824H123.555V186.392ZM124.035 188.256H125.291V188.816H124.035V188.256ZM121.915 191C123.395 191 124.291 191.48 124.291 192.304C124.291 193.136 123.395 193.608 121.915 193.608C120.435 193.608 119.539 193.136 119.539 192.304C119.539 191.48 120.435 191 121.915 191ZM121.915 191.52C120.843 191.52 120.187 191.808 120.187 192.304C120.187 192.8 120.843 193.088 121.915 193.088C122.987 193.088 123.643 192.8 123.643 192.304C123.643 191.808 122.987 191.52 121.915 191.52ZM129.723 187.088H130.267V187.688C130.267 189.016 129.475 190.12 128.251 190.56L127.915 190.032C129.003 189.656 129.723 188.72 129.723 187.688V187.088ZM129.843 187.088H130.387V187.68C130.387 188.64 131.083 189.504 132.147 189.864L131.827 190.392C130.619 189.984 129.843 188.92 129.843 187.68V187.088ZM128.107 186.896H131.979V187.432H128.107V186.896ZM132.899 186.392H133.563V190.648H132.899V186.392ZM133.379 188.192H134.635V188.744H133.379V188.192ZM129.019 190.976H133.563V193.528H129.019V190.976ZM132.915 191.504H129.667V192.992H132.915V191.504ZM136.146 186.768H140.802V187.312H136.146V186.768ZM135.314 189.432H141.866V189.976H135.314V189.432ZM140.37 186.768H141.018V187.304C141.018 187.92 141.018 188.624 140.778 189.624L140.13 189.592C140.37 188.6 140.37 187.904 140.37 187.304V186.768ZM136.114 190.96H141.042V193.528H136.114V190.96ZM140.394 191.488H136.762V192.992H140.394V191.488Z" fill="black"/>
<rect x="62" y="141" width="15" height="20" rx="2" fill="#ACBFCE"/>
<path d="M84.4145 148.368H84.8105V149.094C84.8105 149.91 84.3485 150.768 83.5505 151.134L83.2805 150.744C83.9885 150.426 84.4145 149.712 84.4145 149.094V148.368ZM84.4925 148.368H84.8885V149.094C84.8885 149.712 85.2905 150.33 85.9865 150.612L85.7225 150.996C84.9365 150.666 84.4925 149.904 84.4925 149.094V148.368ZM87.3725 148.05H87.8465V151.326H87.3725V148.05ZM86.4965 149.454H87.5225V149.868H86.4965V149.454ZM86.2085 148.14H86.6825V151.296H86.2085V148.14ZM84.2105 151.62H87.8465V153.468H87.3545V152.028H84.2105V151.62ZM90.114 148.326H90.528V148.878C90.528 149.922 89.94 150.786 89.034 151.14L88.77 150.738C89.586 150.438 90.114 149.706 90.114 148.878V148.326ZM90.204 148.326H90.612V148.914C90.612 149.646 91.152 150.324 91.932 150.594L91.668 150.984C90.798 150.66 90.204 149.856 90.204 148.914V148.326ZM92.508 148.044H93.006V151.332H92.508V148.044ZM92.868 149.442H93.81V149.862H92.868V149.442ZM91.278 151.482C92.388 151.482 93.06 151.848 93.06 152.472C93.06 153.096 92.388 153.456 91.278 153.456C90.168 153.456 89.496 153.096 89.496 152.472C89.496 151.848 90.168 151.482 91.278 151.482ZM91.278 151.878C90.474 151.878 89.982 152.094 89.982 152.472C89.982 152.85 90.474 153.066 91.278 153.066C92.082 153.066 92.574 152.85 92.574 152.472C92.574 152.094 92.082 151.878 91.278 151.878Z" fill="black"/>
<path d="M65.5845 175.608H66.0705C66.0705 177.174 65.5425 178.614 63.5985 179.58L63.3285 179.196C65.0445 178.35 65.5845 177.138 65.5845 175.662V175.608ZM63.6225 175.608H65.8785V176.01H63.6225V175.608ZM65.5065 176.952V177.336L63.4305 177.54L63.3525 177.096L65.5065 176.952ZM66.9465 175.038H67.4505V180.468H66.9465V175.038ZM67.3125 177.24H68.3145V177.654H67.3125V177.24ZM68.794 177.966H73.696V178.374H68.794V177.966ZM70.996 177.234H71.488V178.104H70.996V177.234ZM69.34 178.848H73.066V180.468H72.568V179.256H69.34V178.848ZM69.442 177.012H73.12V177.402H69.442V177.012ZM69.442 175.188H73.096V175.578H69.934V177.192H69.442V175.188ZM69.79 176.088H72.952V176.466H69.79V176.088Z" fill="black"/>
<path d="M65.4326 232.97L64.999 232.858L65.2129 230.734H67.4014V231.235H65.6729L65.5439 232.396C65.6221 232.351 65.7207 232.309 65.8398 232.27C65.9609 232.23 66.0996 232.211 66.2559 232.211C66.4531 232.211 66.6299 232.245 66.7861 232.313C66.9424 232.38 67.0752 232.476 67.1846 232.601C67.2959 232.726 67.3809 232.876 67.4395 233.052C67.498 233.228 67.5273 233.424 67.5273 233.641C67.5273 233.846 67.499 234.034 67.4424 234.206C67.3877 234.378 67.3047 234.528 67.1934 234.657C67.082 234.784 66.9414 234.883 66.7715 234.953C66.6035 235.023 66.4053 235.059 66.1768 235.059C66.0049 235.059 65.8418 235.035 65.6875 234.988C65.5352 234.939 65.3984 234.866 65.2773 234.769C65.1582 234.669 65.0605 234.546 64.9844 234.399C64.9102 234.251 64.8633 234.077 64.8438 233.878H65.3594C65.3828 234.038 65.4297 234.173 65.5 234.282C65.5703 234.392 65.6621 234.475 65.7754 234.531C65.8906 234.586 66.0244 234.613 66.1768 234.613C66.3057 234.613 66.4199 234.591 66.5195 234.546C66.6191 234.501 66.7031 234.437 66.7715 234.353C66.8398 234.269 66.8916 234.167 66.9268 234.048C66.9639 233.929 66.9824 233.795 66.9824 233.646C66.9824 233.512 66.9639 233.387 66.9268 233.271C66.8896 233.156 66.834 233.056 66.7598 232.97C66.6875 232.884 66.5986 232.817 66.4932 232.771C66.3877 232.722 66.2666 232.697 66.1299 232.697C65.9482 232.697 65.8105 232.722 65.7168 232.771C65.625 232.819 65.5303 232.886 65.4326 232.97ZM70.7998 232.527V233.178C70.7998 233.527 70.7686 233.822 70.7061 234.062C70.6436 234.303 70.5537 234.496 70.4365 234.643C70.3193 234.789 70.1777 234.896 70.0117 234.962C69.8477 235.026 69.6621 235.059 69.4551 235.059C69.291 235.059 69.1396 235.038 69.001 234.997C68.8623 234.956 68.7373 234.891 68.626 234.801C68.5166 234.709 68.4229 234.59 68.3447 234.443C68.2666 234.297 68.207 234.119 68.166 233.91C68.125 233.701 68.1045 233.457 68.1045 233.178V232.527C68.1045 232.178 68.1357 231.885 68.1982 231.648C68.2627 231.412 68.3535 231.223 68.4707 231.08C68.5879 230.936 68.7285 230.832 68.8926 230.77C69.0586 230.707 69.2441 230.676 69.4492 230.676C69.6152 230.676 69.7676 230.696 69.9062 230.737C70.0469 230.776 70.1719 230.84 70.2812 230.928C70.3906 231.014 70.4834 231.129 70.5596 231.273C70.6377 231.416 70.6973 231.591 70.7383 231.798C70.7793 232.005 70.7998 232.248 70.7998 232.527ZM70.2549 233.266V232.437C70.2549 232.245 70.2432 232.077 70.2197 231.933C70.1982 231.786 70.166 231.661 70.123 231.558C70.0801 231.454 70.0254 231.37 69.959 231.306C69.8945 231.241 69.8193 231.194 69.7334 231.165C69.6494 231.134 69.5547 231.118 69.4492 231.118C69.3203 231.118 69.2061 231.143 69.1064 231.191C69.0068 231.238 68.9229 231.313 68.8545 231.417C68.7881 231.521 68.7373 231.656 68.7021 231.824C68.667 231.992 68.6494 232.196 68.6494 232.437V233.266C68.6494 233.457 68.6602 233.626 68.6816 233.772C68.7051 233.919 68.7393 234.046 68.7842 234.153C68.8291 234.259 68.8838 234.346 68.9482 234.414C69.0127 234.482 69.0869 234.533 69.1709 234.566C69.2568 234.598 69.3516 234.613 69.4551 234.613C69.5879 234.613 69.7041 234.588 69.8037 234.537C69.9033 234.486 69.9863 234.407 70.0527 234.3C70.1211 234.19 70.1719 234.051 70.2051 233.881C70.2383 233.709 70.2549 233.504 70.2549 233.266ZM73.3047 230.734H73.8525L75.25 234.212L76.6445 230.734H77.1953L75.4609 235H75.0332L73.3047 230.734ZM73.126 230.734H73.6094L73.6885 233.336V235H73.126V230.734ZM76.8877 230.734H77.3711V235H76.8086V233.336L76.8877 230.734ZM79.8848 233.005H78.8037L78.7979 232.551H79.7793C79.9414 232.551 80.083 232.523 80.2041 232.469C80.3252 232.414 80.4189 232.336 80.4854 232.234C80.5537 232.131 80.5879 232.008 80.5879 231.865C80.5879 231.709 80.5576 231.582 80.4971 231.484C80.4385 231.385 80.3477 231.312 80.2246 231.268C80.1035 231.221 79.9492 231.197 79.7617 231.197H78.9297V235H78.3643V230.734H79.7617C79.9805 230.734 80.1758 230.757 80.3477 230.802C80.5195 230.845 80.665 230.913 80.7842 231.007C80.9053 231.099 80.9971 231.216 81.0596 231.358C81.1221 231.501 81.1533 231.672 81.1533 231.871C81.1533 232.047 81.1084 232.206 81.0186 232.349C80.9287 232.489 80.8037 232.604 80.6436 232.694C80.4854 232.784 80.2998 232.842 80.0869 232.867L79.8848 233.005ZM79.8584 235H78.5811L78.9004 234.54H79.8584C80.0381 234.54 80.1904 234.509 80.3154 234.446C80.4424 234.384 80.5391 234.296 80.6055 234.183C80.6719 234.067 80.7051 233.932 80.7051 233.775C80.7051 233.617 80.6768 233.48 80.6201 233.365C80.5635 233.25 80.4746 233.161 80.3535 233.099C80.2324 233.036 80.0762 233.005 79.8848 233.005H79.0791L79.085 232.551H80.1865L80.3066 232.715C80.5117 232.732 80.6855 232.791 80.8281 232.891C80.9707 232.988 81.0791 233.113 81.1533 233.266C81.2295 233.418 81.2676 233.586 81.2676 233.77C81.2676 234.035 81.209 234.26 81.0918 234.443C80.9766 234.625 80.8135 234.764 80.6025 234.859C80.3916 234.953 80.1436 235 79.8584 235Z" fill="black"/>
<path d="M63.861 208.43H64.245V208.712C64.245 209.786 63.795 210.872 63.003 211.346L62.703 210.968C63.441 210.536 63.861 209.594 63.861 208.712V208.43ZM63.951 208.43H64.335V208.712C64.335 209.57 64.773 210.458 65.499 210.854L65.217 211.226C64.419 210.782 63.951 209.756 63.951 208.712V208.43ZM62.841 208.052H65.355V208.46H62.841V208.052ZM63.861 207.236H64.341V208.358H63.861V207.236ZM66.903 207.044H67.377V212.468H66.903V207.044ZM66.045 209.228H67.089V209.648H66.045V209.228ZM65.721 207.158H66.189V212.198H65.721V207.158ZM68.5886 209.618H69.0266C70.1966 209.618 70.8386 209.594 71.6006 209.468L71.6546 209.864C70.8686 210.002 70.2086 210.02 69.0266 210.02H68.5886V209.618ZM68.5886 207.44H71.1686V207.842H69.0806V209.822H68.5886V207.44ZM68.9186 208.514H71.0186V208.91H68.9186V208.514ZM72.2186 207.05H72.7226V210.404H72.2186V207.05ZM70.9286 210.482C72.0566 210.482 72.7466 210.842 72.7466 211.466C72.7466 212.096 72.0566 212.456 70.9286 212.456C69.7946 212.456 69.1046 212.096 69.1046 211.466C69.1046 210.842 69.7946 210.482 70.9286 210.482ZM70.9286 210.878C70.1006 210.878 69.6026 211.094 69.6026 211.466C69.6026 211.85 70.1006 212.066 70.9286 212.066C71.7506 212.066 72.2486 211.85 72.2486 211.466C72.2486 211.094 71.7506 210.878 70.9286 210.878ZM76.2741 210.446C77.3781 210.446 78.0561 210.818 78.0561 211.454C78.0561 212.09 77.3781 212.462 76.2741 212.462C75.1701 212.462 74.4921 212.09 74.4921 211.454C74.4921 210.818 75.1701 210.446 76.2741 210.446ZM76.2741 210.848C75.4701 210.848 74.9781 211.07 74.9781 211.454C74.9781 211.844 75.4701 212.066 76.2741 212.066C77.0781 212.066 77.5701 211.844 77.5701 211.454C77.5701 211.07 77.0781 210.848 76.2741 210.848ZM77.5041 207.044H78.0021V210.302H77.5041V207.044ZM77.8641 208.406H78.8061V208.826H77.8641V208.406ZM74.0181 207.386H74.5101V208.196H76.0401V207.386H76.5261V209.888H74.0181V207.386ZM74.5101 208.592V209.486H76.0401V208.592H74.5101ZM81.0919 207.464H83.4919V207.872H81.0919V207.464ZM81.9079 208.676H82.3999V210.032H81.9079V208.676ZM83.2939 207.464H83.7859V207.752C83.7859 208.106 83.7859 208.646 83.6419 209.36L83.1559 209.306C83.2939 208.592 83.2939 208.1 83.2939 207.752V207.464ZM84.5239 207.044H85.0219V211.13H84.5239V207.044ZM84.7939 208.808H85.7959V209.222H84.7939V208.808ZM81.5959 211.94H85.1959V212.348H81.5959V211.94ZM81.5959 210.752H82.0879V212.066H81.5959V210.752ZM80.8159 210.266L80.7619 209.858C81.7279 209.858 83.0599 209.834 84.1579 209.684L84.1939 210.044C83.0659 210.242 81.7699 210.266 80.8159 210.266ZM90.2714 207.038H90.7694V212.474H90.2714V207.038ZM86.6354 210.752H87.0854C87.9914 210.752 88.8014 210.716 89.7614 210.56L89.8154 210.968C88.8314 211.13 88.0154 211.166 87.0854 211.166H86.6354V210.752ZM86.6234 207.548H89.1314V209.486H87.1334V210.908H86.6354V209.078H88.6274V207.956H86.6234V207.548Z" fill="black"/>
<line x1="49" y1="107.5" x2="300" y2="107.5" stroke="#DEDEDE"/>
<line x1="50" y1="201.5" x2="301" y2="201.5" stroke="#DEDEDE"/>
<path d="M69.4741 246.392H70.1141V253.624H69.4741V246.392ZM68.2501 249.288H69.6421V249.84H68.2501V249.288ZM67.8341 246.552H68.4581V253.256H67.8341V246.552ZM64.2341 251.288H64.7061C65.7621 251.288 66.4821 251.248 67.3221 251.072L67.3861 251.624C66.5221 251.808 65.7941 251.84 64.7061 251.84H64.2341V251.288ZM64.2341 247.272H66.9221V247.816H64.8901V251.536H64.2341V247.272ZM73.2095 250.704H73.8735V251.88H73.2095V250.704ZM76.2495 246.392H76.9135V253.624H76.2495V246.392ZM76.6975 249.464H78.0335V250.024H76.6975V249.464ZM71.3455 252.248L71.2495 251.696C72.5455 251.696 74.3135 251.68 75.8095 251.464L75.8655 251.96C74.3055 252.24 72.6095 252.248 71.3455 252.248ZM71.3695 247.264H75.6975V247.8H71.3695V247.264ZM73.5375 248.224C74.5455 248.224 75.2415 248.752 75.2415 249.56C75.2415 250.376 74.5455 250.896 73.5375 250.896C72.5295 250.896 71.8415 250.376 71.8415 249.56C71.8415 248.752 72.5295 248.224 73.5375 248.224ZM73.5375 248.736C72.8895 248.736 72.4655 249.064 72.4655 249.56C72.4655 250.056 72.8895 250.384 73.5375 250.384C74.1855 250.384 74.6175 250.056 74.6175 249.56C74.6175 249.064 74.1855 248.736 73.5375 248.736ZM73.2095 246.4H73.8735V247.624H73.2095V246.4ZM86.1693 246.392H86.8093V253.624H86.1693V246.392ZM84.9533 249.336H86.3453V249.88H84.9533V249.336ZM84.5293 246.552H85.1533V253.256H84.5293V246.552ZM81.0253 247.264H81.6893V251.44H81.0253V247.264ZM81.0253 251.176H81.4893C82.2333 251.176 83.0653 251.128 84.0093 250.944L84.0813 251.52C83.0973 251.712 82.2653 251.752 81.4893 251.752H81.0253V251.176ZM89.6486 248.84H90.3046V250.208H89.6486V248.84ZM92.3046 248.84H92.9606V250.208H92.3046V248.84ZM88.0326 249.968H94.5686V250.504H88.0326V249.968ZM91.2966 251.048C92.8486 251.048 93.7766 251.504 93.7766 252.328C93.7766 253.152 92.8486 253.616 91.2966 253.616C89.7446 253.616 88.8166 253.152 88.8166 252.328C88.8166 251.504 89.7446 251.048 91.2966 251.048ZM91.2966 251.56C90.1686 251.56 89.4886 251.84 89.4886 252.328C89.4886 252.824 90.1686 253.096 91.2966 253.096C92.4326 253.096 93.1046 252.824 93.1046 252.328C93.1046 251.84 92.4326 251.56 91.2966 251.56ZM91.3046 246.52C92.8726 246.52 93.8486 247.024 93.8486 247.872C93.8486 248.712 92.8726 249.208 91.3046 249.208C89.7286 249.208 88.7606 248.712 88.7606 247.872C88.7606 247.024 89.7286 246.52 91.3046 246.52ZM91.3046 247.04C90.1526 247.04 89.4406 247.344 89.4406 247.872C89.4406 248.392 90.1526 248.696 91.3046 248.696C92.4566 248.696 93.1686 248.392 93.1686 247.872C93.1686 247.344 92.4566 247.04 91.3046 247.04ZM102.872 246.392H103.512V253.624H102.872V246.392ZM101.656 249.336H103.048V249.88H101.656V249.336ZM101.232 246.552H101.856V253.256H101.232V246.552ZM97.7284 247.264H98.3924V251.44H97.7284V247.264ZM97.7284 251.176H98.1924C98.9364 251.176 99.7684 251.128 100.712 250.944L100.784 251.52C99.8004 251.712 98.9684 251.752 98.1924 251.752H97.7284V251.176ZM104.744 252.152H111.296V252.704H104.744V252.152ZM107.672 250.424H108.336V252.312H107.672V250.424ZM105.512 246.904H106.168V248.192H109.856V246.904H110.512V250.6H105.512V246.904ZM106.168 248.728V250.056H109.856V248.728H106.168ZM117.591 246.392H118.231V253.624H117.591V246.392ZM116.375 249.336H117.767V249.88H116.375V249.336ZM115.951 246.552H116.575V253.256H115.951V246.552ZM112.447 247.264H113.111V251.44H112.447V247.264ZM112.447 251.176H112.911C113.655 251.176 114.487 251.128 115.431 250.944L115.503 251.52C114.519 251.712 113.687 251.752 112.911 251.752H112.447V251.176ZM124.727 246.392H125.391V253.624H124.727V246.392ZM122.607 247.168H123.263C123.263 249.264 122.319 251.096 119.903 252.28L119.551 251.744C121.639 250.736 122.607 249.2 122.607 247.28V247.168ZM119.879 247.168H122.895V247.712H119.879V247.168Z" fill="black"/>
</svg>
