<?xml version="1.0" encoding="utf-8"?>
<!-- Svg Vector Icons : http://www.onlinewebfonts.com/icon -->
<!DOCTYPE svg PUBLIC "-//W3C//DTD SVG 1.1//EN" "http://www.w3.org/Graphics/SVG/1.1/DTD/svg11.dtd">
<svg version="1.1" xmlns="http://www.w3.org/2000/svg" xmlns:xlink="http://www.w3.org/1999/xlink" x="0px" y="0px" viewBox="0 0 256 256" enable-background="new 0 0 256 256" xml:space="preserve">
<metadata> Svg Vector Icons : http://www.onlinewebfonts.com/icon </metadata>
<g><g><path fill="#000000" d="M238.3,101.4c14.8,15.8,10.8,43.4-33.5,53.2c0-19.7-33.5-26.6-76.9-26.6c-46.3,0-78.8,6.9-78.8,27.6c-44.4-8.9-46.3-39.4-28.6-56.2c23.6-23.6,29.6-1,107.4-1C198.8,98.4,212.6,74.8,238.3,101.4z"/><g><path fill="#000000" d="M127.9,88.6c47.3,0,69-10.8,69-10.8V66.9c0-28.6-17.7-57.2-69-57.2c-53.2,0-69,29.6-69,57.1v11.8C58.9,78.7,80.6,88.6,127.9,88.6z"/></g><path fill="#000000" d="M127.9,147.7c-4.9,0-8.9,2-11.8,3.9c1-1,3-2,4.9-2c4.9,0,9.8,3.9,9.8,9.8c0,4.9-3.9,9.8-9.8,9.8c-4.9,0-9.8-4-9.8-9.8c0-2,1-3,2-4.9c-3,3.9-4.9,7.9-4.9,12.8c0,10.8,8.9,19.7,19.7,19.7c10.8,0,19.7-8.9,19.7-19.7C147.6,156.6,138.7,147.7,127.9,147.7z"/><g><g><g><path fill="#000000" d="M73.7,193c2,1,5.9,3.9,8.9,5.9c10.8,7.9,25.6,17.7,45.3,17.7c20.7,0,35.5-9.8,46.3-16.8c2-1,4.9-3,6.9-3.9c-1,3-3.9,7.9-8.9,13.8c-9.8,10.8-26.6,22.7-44.4,22.7c-18.7,0-37.4-12.8-47.3-24.6C75.6,200,74.7,195,73.7,193 M72.7,177.3c-3,0-5.9,1-9.8,3.9c-16.8,16.7,22.7,65,65,65c42.4,0,80.8-49.3,65-65c-3-3-5.9-3.9-8.9-3.9c-13.8,0-29.6,23.6-57.2,23.6C101.3,200.9,86.5,177.3,72.7,177.3L72.7,177.3z"/></g></g></g></g></g>
</svg>