<svg class="svg-icon" style="width: 1em; height: 1em;vertical-align: middle;fill: currentColor;overflow: hidden;" viewBox="0 0 1024 1024" version="1.1" xmlns="http://www.w3.org/2000/svg"><path d="M511.674077 273.40081c0 0-198.821231-92.63991-442.833711-79.085196l47.448662 648.437415c0 0 180.745551-18.067494 395.385049 110.709451 0 0 189.793624-124.263142 379.572922-110.709451l63.259766-648.437415C954.506764 194.315614 776.011464 180.7609 511.674077 273.40081zM480.036519 874.39161c-149.109016-81.341586-316.307016-79.085196-316.307016-79.085196l-31.630395-553.542138C303.811936 232.723366 480.036519 336.660576 480.036519 336.660576L480.036519 874.39161zM859.609441 795.306414c-149.116179-15.811104-316.313156 79.085196-316.313156 79.085196L543.296285 336.660576c173.98252-99.410104 363.762841-94.8963 363.762841-94.8963L859.609441 795.306414z"  /><path d="M132.100132 131.055848l0 31.637558c0 0 158.157089 23.717168 189.786461 47.448662l79.078033 31.623231C400.964626 241.764276 355.496062 138.961912 132.100132 131.055848z"  /><path d="M163.729503 67.796082l15.818267 47.448662c0 0 213.510792 33.609469 268.865517 142.331659l47.434336 0C495.848647 257.576403 369.335255 73.729212 163.729503 67.796082z"  /><path d="M622.381481 241.764276l79.085196-31.623231c31.623231-23.730471 189.779298-47.448662 189.779298-47.448662l0-31.637558C667.843906 138.961912 622.381481 241.764276 622.381481 241.764276z"  /><path d="M527.485181 257.576403l47.448662 0c55.353702-108.72219 268.864494-142.331659 268.864494-142.331659l15.811104-47.448662C654.004713 73.729212 527.485181 257.576403 527.485181 257.576403z"  /></svg>