<svg xmlns="http://www.w3.org/2000/svg" xmlns:xlink="http://www.w3.org/1999/xlink" viewBox="0 0 80 80" version="1.1" width="80" height="80" style="fill: rgb(0, 0, 0);">
<g id="surface1">
<path style=" " d="M 13 11 C 10.800781 11 9 12.800781 9 15 L 9 49 C 9 49.730469 9.214844 50.410156 9.5625 51 L 5 51 L 5 54 C 5 56.75 7.25 59 10 59 L 21 59 L 21 69 C 21 70.644531 22.355469 72 24 72 L 38 72 C 39.644531 72 41 70.644531 41 69 L 41 67 L 62 67 C 63.644531 67 65 65.644531 65 64 L 65 59 L 70 59 C 72.75 59 75 56.75 75 54 L 75 51 L 70.4375 51 C 70.785156 50.410156 71 49.730469 71 49 L 71 15 C 71 12.800781 69.199219 11 67 11 Z M 13 13 L 67 13 C 68.117188 13 69 13.882813 69 15 L 69 49 C 69 50.117188 68.117188 51 67 51 L 65 51 L 65 31 C 65 29.355469 63.644531 28 62 28 L 38 28 C 36.355469 28 35 29.355469 35 31 L 35 41 L 24 41 C 22.355469 41 21 42.355469 21 44 L 21 51 L 13 51 C 11.882813 51 11 50.117188 11 49 L 11 15 C 11 13.882813 11.882813 13 13 13 Z M 16 17 C 15.449219 17 15 17.449219 15 18 C 15 18.550781 15.449219 19 16 19 C 16.550781 19 17 18.550781 17 18 C 17 17.449219 16.550781 17 16 17 Z M 20 17 C 19.449219 17 19 17.449219 19 18 C 19 18.550781 19.449219 19 20 19 C 20.550781 19 21 18.550781 21 18 C 21 17.449219 20.550781 17 20 17 Z M 24 17 C 23.449219 17 23 17.449219 23 18 C 23 18.550781 23.449219 19 24 19 C 24.550781 19 25 18.550781 25 18 C 25 17.449219 24.550781 17 24 17 Z M 28 17 C 27.449219 17 27 17.449219 27 18 C 27 18.550781 27.449219 19 28 19 C 28.550781 19 29 18.550781 29 18 C 29 17.449219 28.550781 17 28 17 Z M 32 17 C 31.449219 17 31 17.449219 31 18 C 31 18.550781 31.449219 19 32 19 C 32.550781 19 33 18.550781 33 18 C 33 17.449219 32.550781 17 32 17 Z M 36 17 C 35.449219 17 35 17.449219 35 18 C 35 18.550781 35.449219 19 36 19 C 36.550781 19 37 18.550781 37 18 C 37 17.449219 36.550781 17 36 17 Z M 40 17 C 39.449219 17 39 17.449219 39 18 C 39 18.550781 39.449219 19 40 19 C 40.550781 19 41 18.550781 41 18 C 41 17.449219 40.550781 17 40 17 Z M 44 17 C 43.449219 17 43 17.449219 43 18 C 43 18.550781 43.449219 19 44 19 C 44.550781 19 45 18.550781 45 18 C 45 17.449219 44.550781 17 44 17 Z M 48 17 C 47.449219 17 47 17.449219 47 18 C 47 18.550781 47.449219 19 48 19 C 48.550781 19 49 18.550781 49 18 C 49 17.449219 48.550781 17 48 17 Z M 52 17 C 51.449219 17 51 17.449219 51 18 C 51 18.550781 51.449219 19 52 19 C 52.550781 19 53 18.550781 53 18 C 53 17.449219 52.550781 17 52 17 Z M 56 17 C 55.449219 17 55 17.449219 55 18 C 55 18.550781 55.449219 19 56 19 C 56.550781 19 57 18.550781 57 18 C 57 17.449219 56.550781 17 56 17 Z M 60 17 C 59.449219 17 59 17.449219 59 18 C 59 18.550781 59.449219 19 60 19 C 60.550781 19 61 18.550781 61 18 C 61 17.449219 60.550781 17 60 17 Z M 64 17 C 63.449219 17 63 17.449219 63 18 C 63 18.550781 63.449219 19 64 19 C 64.550781 19 65 18.550781 65 18 C 65 17.449219 64.550781 17 64 17 Z M 16 21 C 15.449219 21 15 21.449219 15 22 C 15 22.550781 15.449219 23 16 23 C 16.550781 23 17 22.550781 17 22 C 17 21.449219 16.550781 21 16 21 Z M 64 21 C 63.449219 21 63 21.449219 63 22 C 63 22.550781 63.449219 23 64 23 C 64.550781 23 65 22.550781 65 22 C 65 21.449219 64.550781 21 64 21 Z M 16 25 C 15.449219 25 15 25.449219 15 26 C 15 26.550781 15.449219 27 16 27 C 16.550781 27 17 26.550781 17 26 C 17 25.449219 16.550781 25 16 25 Z M 64 25 C 63.449219 25 63 25.449219 63 26 C 63 26.550781 63.449219 27 64 27 C 64.550781 27 65 26.550781 65 26 C 65 25.449219 64.550781 25 64 25 Z M 16 29 C 15.449219 29 15 29.449219 15 30 C 15 30.550781 15.449219 31 16 31 C 16.550781 31 17 30.550781 17 30 C 17 29.449219 16.550781 29 16 29 Z M 38 30 L 62 30 C 62.566406 30 63 30.433594 63 31 L 63 64 C 63 64.566406 62.566406 65 62 65 L 41 65 L 41 44 C 41 42.355469 39.644531 41 38 41 L 37 41 L 37 31 C 37 30.433594 37.433594 30 38 30 Z M 16 33 C 15.449219 33 15 33.449219 15 34 C 15 34.550781 15.449219 35 16 35 C 16.550781 35 17 34.550781 17 34 C 17 33.449219 16.550781 33 16 33 Z M 16 37 C 15.449219 37 15 37.449219 15 38 C 15 38.550781 15.449219 39 16 39 C 16.550781 39 17 38.550781 17 38 C 17 37.449219 16.550781 37 16 37 Z M 16 41 C 15.449219 41 15 41.449219 15 42 C 15 42.550781 15.449219 43 16 43 C 16.550781 43 17 42.550781 17 42 C 17 41.449219 16.550781 41 16 41 Z M 24 43 L 38 43 C 38.566406 43 39 43.433594 39 44 L 39 69 C 39 69.566406 38.566406 70 38 70 L 24 70 C 23.433594 70 23 69.566406 23 69 L 23 44 C 23 43.433594 23.433594 43 24 43 Z M 16 45 C 15.449219 45 15 45.449219 15 46 C 15 46.550781 15.449219 47 16 47 C 16.550781 47 17 46.550781 17 46 C 17 45.449219 16.550781 45 16 45 Z M 7 53 L 21 53 L 21 57 L 10 57 C 8.332031 57 7 55.667969 7 54 Z M 65 53 L 73 53 L 73 54 C 73 55.667969 71.667969 57 70 57 L 65 57 Z M 50 61 C 49.449219 61 49 61.449219 49 62 C 49 62.550781 49.449219 63 50 63 C 50.550781 63 51 62.550781 51 62 C 51 61.449219 50.550781 61 50 61 Z M 31 66 C 30.449219 66 30 66.449219 30 67 C 30 67.550781 30.449219 68 31 68 C 31.550781 68 32 67.550781 32 67 C 32 66.449219 31.550781 66 31 66 Z "/>
</g>
</svg>