<svg class="svg-icon" style="width: 1em; height: 1em;vertical-align: middle;fill: currentColor;overflow: hidden;" viewBox="0 0 1024 1024" version="1.1" xmlns="http://www.w3.org/2000/svg"><path d="M605.502453 381.889471 605.502453 158.904255l31.855402 0L637.357855 127.049253l-31.855402 0 0 0-95.537026 0-0.02898 0-95.536426 0 0 0-31.915761 0 0 31.854802 31.915761 0 0 222.985216c0 0-222.985216 318.551222-222.985216 414.111233 0 95.565007 95.565007 95.565007 95.565007 95.565007l222.952838 0 0.027981 0 222.957235 0c0 0 95.570004 0 95.570004-95.565007C828.487669 700.440693 605.502453 381.889471 605.502453 381.889471zM732.922662 859.711308 509.936447 859.711308l-222.956835 0c-10.640186 0-63.710204-3.105894-63.710204-63.710604 0-62.274578 133.204887-275.865163 217.201138-395.849614l5.784478-8.24481 0-10.016609L446.255023 158.904255l127.391828 0 0 222.985216 0 10.016609 5.7521 8.24481c83.995851 119.984251 217.233116 333.575036 217.233116 395.849614C796.632267 854.208039 747.700643 859.466474 732.922662 859.711308zM669.427912 477.454878 350.473963 477.454878c-65.891725 101.880125-159.059158 256.768711-159.059158 318.550623 0 95.565007 95.565007 95.565007 95.565007 95.565007l222.956835 0 0.02898 0 222.957235 0c0 0 95.565007 0 95.565007-95.565007C828.487669 734.223588 735.31504 579.335003 669.427912 477.454878zM382.516638 764.145301c-17.578482 0-31.854802-14.276321-31.854802-31.850405 0-17.579081 14.276321-31.854403 31.854802-31.854403 17.579081 0 31.855402 14.275321 31.855402 31.854403C414.37184 749.868981 400.095719 764.145301 382.516638 764.145301zM478.082044 668.585291c-35.186144 0-63.710204-28.528658-63.710204-63.710604 0-35.213925 28.524061-63.709605 63.710204-63.709605 35.176151 0 63.710604 28.49568 63.710604 63.709605C541.792649 640.056634 513.258195 668.585291 478.082044 668.585291zM605.502453 796.0055c-35.186144 0-63.709605-28.528658-63.709605-63.710604 0-35.214125 28.523661-63.709605 63.709605-63.709605 35.176151 0 63.709605 28.49548 63.709605 63.709605C669.212058 767.477043 640.678404 796.0055 605.502453 796.0055z"  /></svg>