<svg xmlns="http://www.w3.org/2000/svg" width="1200" height="845" viewBox="0 0 1200 845" version="1.1"><path d="M 477 409.607 C 477 568.152, 477.094 577.178, 478.732 576.549 C 480.151 576.005, 626.433 500.327, 769.872 425.930 L 800.244 410.177 796.872 408.437 C 795.017 407.480, 722.479 369.641, 635.675 324.349 C 548.871 279.057, 477.659 242, 477.425 242 C 477.191 242, 477 317.423, 477 409.607" stroke="none" fill="#faf8f8" fill-rule="evenodd"/><path d="M 489 2.073 C 353.086 4.063, 215.164 9.433, 169 14.532 C 136.848 18.083, 115.383 24.743, 93.736 37.882 C 76.991 48.046, 58.964 64.725, 49.834 78.500 C 33.321 103.418, 17.985 149.304, 13.070 188.500 C 9.349 218.168, 4.633 279.808, 2.932 321 C 1.554 354.379, 2.263 524.678, 3.880 548.500 C 6.707 590.158, 9.868 627.680, 12.557 651.500 C 17.258 693.140, 32.456 739.918, 49.714 765.869 C 66.030 790.403, 95.750 811.017, 128.407 820.453 C 145.532 825.400, 176.486 830.354, 206.500 832.949 C 255.743 837.207, 411.965 841.781, 570 843.593 C 661.912 844.647, 826.838 841.398, 932 836.462 C 1045.972 831.112, 1067.240 827.928, 1098.802 811.489 C 1124.188 798.267, 1144.493 779.011, 1157.715 755.620 C 1168.901 735.829, 1180.162 701.789, 1185.874 670.500 C 1188.520 656.005, 1192.231 619.383, 1194.995 580.500 C 1195.581 572.250, 1196.551 558.975, 1197.149 551 C 1198.762 529.499, 1199.469 348.455, 1198.063 317 C 1196.257 276.580, 1192.306 225.045, 1188.473 191.897 C 1184.006 153.272, 1169.765 108.162, 1153.844 82.212 C 1146.492 70.227, 1127.101 50.793, 1113.457 41.736 C 1084.597 22.578, 1058.940 15.680, 1003 12.040 C 873.054 3.584, 663.409 -0.481, 489 2.073 M 477 409.607 C 477 568.152, 477.094 577.178, 478.732 576.549 C 480.151 576.005, 626.433 500.327, 769.872 425.930 L 800.244 410.177 796.872 408.437 C 795.017 407.480, 722.479 369.641, 635.675 324.349 C 548.871 279.057, 477.659 242, 477.425 242 C 477.191 242, 477 317.423, 477 409.607" stroke="none" fill="#d31d1d" fill-rule="evenodd"/></svg>